<svg width="182" height="30" viewBox="0 0 182 30" fill="none" xmlns="http://www.w3.org/2000/svg">
<path fill-rule="evenodd" clip-rule="evenodd" d="M48.2888 11.8873C48.2888 10.378 47.1313 9.46161 45.5971 9.46161H41.5864V14.3131H45.5971C47.1313 14.3131 48.2888 13.3967 48.2888 11.8873ZM47.9115 24.0699L44.3844 17.6812H41.586V24.0699H37.7646V6.0925H46.1618C49.9033 6.0925 52.1913 8.54518 52.1913 11.8873C52.1913 15.0677 50.1994 16.7657 48.2614 17.223L52.2989 24.0699H47.9115Z" fill="#37383C"/>
<path fill-rule="evenodd" clip-rule="evenodd" d="M63.4147 17.5471C63.4147 15.5257 62.2035 13.7737 60.077 13.7737C57.9506 13.7737 56.7672 15.5257 56.7672 17.5471C56.7672 19.5946 57.9506 21.3465 60.077 21.3465C62.2035 21.3465 63.4147 19.5946 63.4147 17.5471ZM53.2152 17.5472C53.2152 13.8547 55.7992 10.7282 60.0781 10.7282C64.3849 10.7282 66.9689 13.8547 66.9689 17.5472C66.9689 21.2667 64.3849 24.3923 60.0781 24.3923C55.7992 24.3923 53.2152 21.2667 53.2152 17.5472Z" fill="#37383C"/>
<path fill-rule="evenodd" clip-rule="evenodd" d="M68.5289 17.5472C68.5289 13.5582 71.409 10.7282 75.4197 10.7282C78.0836 10.7282 79.6995 11.8872 80.5608 13.074L78.3267 15.1754C77.7067 14.259 76.7655 13.7738 75.5812 13.7738C73.5086 13.7738 72.0551 15.2823 72.0551 17.5472C72.0551 19.8112 73.5086 21.3466 75.5812 21.3466C76.7655 21.3466 77.7067 20.8085 78.3267 19.946L80.5608 22.0204C79.6995 23.2333 78.0836 24.3923 75.4197 24.3923C71.409 24.3923 68.5289 21.5631 68.5289 17.5472Z" fill="#37383C"/>
<path fill-rule="evenodd" clip-rule="evenodd" d="M91.0857 24.0693L87.6403 19.0562L86.0791 20.7272V24.0693H82.6606V6.09198H86.0791V16.8461L91.0049 11.0522H95.204L90.0628 16.9539L95.3655 24.0693H91.0857Z" fill="#37383C"/>
<path fill-rule="evenodd" clip-rule="evenodd" d="M102.66 13.4503C100.535 13.4503 99.6184 15.0405 99.4578 16.3333H105.863C105.782 15.0935 104.922 13.4503 102.66 13.4503ZM95.9312 17.5475C95.9312 13.7732 98.7036 10.7285 102.66 10.7285C106.536 10.7285 109.173 13.6393 109.173 17.8969V18.6516H99.5102C99.7256 20.2957 101.044 21.6703 103.252 21.6703C104.356 21.6703 105.89 21.1852 106.724 20.3766L108.231 22.5867C106.94 23.7726 104.894 24.3925 102.875 24.3925C98.9189 24.3925 95.9312 21.7242 95.9312 17.5475Z" fill="#37383C"/>
<path fill-rule="evenodd" clip-rule="evenodd" d="M112.189 20.8357V14.0428H110.036V11.0519H112.189V7.49419H115.634V11.0519H118.271V14.0428H115.634V19.9184C115.634 20.7279 116.064 21.3469 116.819 21.3469C117.329 21.3469 117.815 21.1582 118.002 20.9696L118.73 23.557C118.218 24.0152 117.303 24.3926 115.876 24.3926C113.48 24.3926 112.189 23.1527 112.189 20.8357Z" fill="#37383C"/>
<path fill-rule="evenodd" clip-rule="evenodd" d="M120.559 24.0693V6.09198H124.381V20.7003H131.972V24.0693H120.559Z" fill="#37383C"/>
<mask id="mask0" style="mask-type:alpha" maskUnits="userSpaceOnUse" x="0" y="0" width="182" height="30">
<path fill-rule="evenodd" clip-rule="evenodd" d="M0 30H181.122V0H0V30Z" fill="white"/>
</mask>
<g mask="url(#mask0)">
<path fill-rule="evenodd" clip-rule="evenodd" d="M134.422 24.0697H137.841V11.0525H134.422V24.0697ZM134.073 7.6025C134.073 6.46959 135.014 5.58105 136.118 5.58105C137.249 5.58105 138.163 6.46959 138.163 7.6025C138.163 8.7345 137.249 9.64999 136.118 9.64999C135.014 9.64999 134.073 8.7345 134.073 7.6025Z" fill="#37383C"/>
<path fill-rule="evenodd" clip-rule="evenodd" d="M149.871 24.0695V16.1993C149.871 14.3935 148.929 13.7736 147.475 13.7736C146.129 13.7736 145.08 14.5283 144.514 15.3099V24.0695H141.097V11.0523H144.514V12.7494C145.35 11.7522 146.937 10.728 149.064 10.728C151.917 10.728 153.29 12.3451 153.29 14.8796V24.0695H149.871Z" fill="#37383C"/>
<path fill-rule="evenodd" clip-rule="evenodd" d="M164.972 24.0693L161.527 19.0562L159.965 20.7272V24.0693H156.547V6.09198H159.965V16.8461L164.891 11.0522H169.09L163.949 16.9539L169.252 24.0693H164.972Z" fill="#37383C"/>
<path fill-rule="evenodd" clip-rule="evenodd" d="M169.683 22.3708L171.163 19.9729C172.106 20.8615 174.044 21.7518 175.659 21.7518C177.139 21.7518 177.839 21.158 177.839 20.3503C177.839 18.1941 170.114 19.946 170.114 14.825C170.114 12.6418 172.025 10.7282 175.443 10.7282C177.65 10.7282 179.4 11.4829 180.692 12.5071L179.319 14.852C178.539 14.0164 177.058 13.3426 175.47 13.3426C174.232 13.3426 173.424 13.9086 173.424 14.6363C173.424 16.5769 181.123 14.9598 181.123 20.2155C181.123 22.5864 179.104 24.3923 175.497 24.3923C173.236 24.3923 171.056 23.6376 169.683 22.3708Z" fill="#37383C"/>
<path fill-rule="evenodd" clip-rule="evenodd" d="M6.42108 11.8223L13.817 15.3019C14.1956 15.4798 14.5007 15.7844 14.6783 16.1635L18.1524 23.5692L25.114 4.8515L6.42108 11.8223ZM18.345 30C17.6524 30 17.018 29.5993 16.721 28.9678L11.7064 18.2793L1.03113 13.2571C0.377947 12.9499 -0.027602 12.2796 0.00200671 11.5564C0.0316154 10.8332 0.491896 10.1989 1.16841 9.94734L27.539 0.113243C28.1975 -0.132025 28.9378 0.0296902 29.4339 0.526516C29.931 1.02334 30.0925 1.76544 29.8467 2.42398L20.0264 28.8303C19.7752 29.5086 19.1409 29.9686 18.4195 29.9983C18.3944 29.9991 18.3693 30 18.345 30Z" fill="#37383C"/>
<path fill-rule="evenodd" clip-rule="evenodd" d="M5.56324 18.7157L8.94312 20.2582C9.29124 20.4164 9.56938 20.6949 9.72819 21.0435L11.2678 24.4278C11.6492 25.266 11.2409 26.2516 10.3796 26.5723L2.53956 29.4958C1.26818 29.9701 0.0291033 28.7294 0.501945 27.4564L3.42154 19.6051C3.74275 18.7426 4.72702 18.3338 5.56324 18.7157Z" fill="#FFA3AA"/>
</g>
</svg>
