<?xml version="1.0" encoding="UTF-8"?>
<svg version="1.1" xmlns="http://www.w3.org/2000/svg" width="1153" height="370">
<path d="M0 0 C380.49 0 760.98 0 1153 0 C1153 122.1 1153 244.2 1153 370 C772.51 370 392.02 370 0 370 C0 247.9 0 125.8 0 0 Z " fill="#FEFEFE" transform="translate(0,0)"/>
<path d="M0 0 C27.34975143 -0.16043524 27.34975143 -0.16043524 39.08007812 -0.1953125 C47.05912191 -0.21914935 55.03793745 -0.24723476 63.0168457 -0.30175781 C69.45540319 -0.34547567 75.89376203 -0.36919176 82.33245659 -0.37950897 C84.77903809 -0.38685396 87.22560971 -0.40119594 89.67210579 -0.42292023 C102.72580058 -0.53413928 114.62328831 -0.49149287 127 4 C128.65087364 4.58282745 128.65087364 4.58282745 130.33509827 5.1774292 C146.52801817 11.13579578 158.04767108 22.99460774 166 38 C173.30053886 54.72601843 173.72893696 75.30566202 167.4765625 92.46875 C162.65614413 103.99694632 155.061571 113.62216814 144.7265625 120.74609375 C142.96146602 122.02798509 141.5235066 123.44416364 140 125 C150.72704851 145.35275242 150.72704851 145.35275242 162.20458984 165.28686523 C165 169.91882981 165 169.91882981 165 171 C150.81 171 136.62 171 122 171 C115.9375 159.25 115.9375 159.25 114.07397461 155.62597656 C113.56358643 154.64081055 113.05319824 153.65564453 112.52734375 152.640625 C112.01937256 151.65610352 111.51140137 150.67158203 110.98803711 149.65722656 C110.68635117 149.12276917 110.38466522 148.58831177 110.07383728 148.03765869 C109 146 109 146 107.72901917 142.96185303 C106.10181346 139.49777707 104.59438572 136.82230785 102 134 C97.21529573 132.30126582 92.54680488 132.45510395 87.53515625 132.609375 C86.13267545 132.6093186 84.73018578 132.60396572 83.32774353 132.59356689 C79.65500686 132.58043791 75.98682449 132.63874163 72.31494141 132.71246338 C68.56097851 132.77502265 64.80713142 132.76997293 61.05273438 132.76953125 C53.6979726 132.77359578 46.35700013 132.88959192 39 133 C39 145.54 39 158.08 39 171 C26.13 171 13.26 171 0 171 C-0.33 141.63 -0.66 112.26 -1 82 C-24.43 78.04 -47.86 74.08 -72 70 C-72 68.02 -72 66.04 -72 64 C-70.5291394 63.75878418 -70.5291394 63.75878418 -69.02856445 63.51269531 C-64.45599604 62.7617659 -59.88410465 62.00677328 -55.3125 61.25 C-54.07725082 61.04558289 -54.07725082 61.04558289 -52.81704712 60.83703613 C-42.50425676 59.12674383 -32.20300773 57.39123298 -21.96020508 55.29394531 C-14.64562591 53.82723911 -7.46565232 52.99542031 0 52 C0 34.84 0 17.68 0 0 Z " fill="#01008E" transform="translate(72,3)"/>
<path d="M0 0 C51.81 0 103.62 0 157 0 C157 11.88 157 23.76 157 36 C118.39 36 79.78 36 40 36 C40 45.9 40 55.8 40 66 C74.65 66 109.3 66 145 66 C145 77.88 145 89.76 145 102 C110.35 102 75.7 102 40 102 C40 112.89 40 123.78 40 135 C45.4903186 134.99214478 45.4903186 134.99214478 51.09155273 134.98413086 C63.15353627 134.96759814 75.21551901 134.95647923 87.27751064 134.94818783 C94.59427402 134.94302494 101.9110267 134.93598238 109.2277832 134.92456055 C115.60283018 134.91461349 121.97786941 134.90814652 128.35292393 134.90591151 C131.73048014 134.90460443 135.10801416 134.90151881 138.48556328 134.89426994 C142.25007343 134.88706387 146.01453685 134.88600887 149.77905273 134.88647461 C150.90689682 134.88287933 152.03474091 134.87928406 153.19676208 134.87557983 C154.72599304 134.87764183 154.72599304 134.87764183 156.28611755 134.87974548 C157.17749137 134.87882369 158.06886518 134.8779019 158.98725033 134.87695217 C161 135 161 135 162 136 C162 147.55 162 159.1 162 171 C108.54 171 55.08 171 0 171 C0 114.57 0 58.14 0 0 Z " fill="#05048F" transform="translate(300,3)"/>
<path d="M0 0 C51.81 0 103.62 0 157 0 C157 11.88 157 23.76 157 36 C118.39 36 79.78 36 40 36 C40 46.23 40 56.46 40 67 C74.65 67 109.3 67 145 67 C145 78.55 145 90.1 145 102 C110.35 102 75.7 102 40 102 C40 112.89 40 123.78 40 135 C80.26 135 120.52 135 162 135 C162 146.88 162 158.76 162 171 C108.54 171 55.08 171 0 171 C0 114.57 0 58.14 0 0 Z " fill="#04048F" transform="translate(521,3)"/>
<path d="M0 0 C13.2 0 26.4 0 40 0 C40 21.45 40 42.9 40 65 C72.01 65 104.02 65 137 65 C137 43.55 137 22.1 137 0 C150.2 0 163.4 0 177 0 C177 56.43 177 112.86 177 171 C163.8 171 150.6 171 137 171 C137 147.57 137 124.14 137 100 C104.99 100 72.98 100 40 100 C40 123.43 40 146.86 40 171 C26.8 171 13.6 171 0 171 C0 114.57 0 58.14 0 0 Z " fill="#03028E" transform="translate(976,3)"/>
<path d="M0 0 C8.85386015 7.25111758 17.82167219 15.61844857 23 26 C23 26.66 23 27.32 23 28 C21.88757935 28.62044189 21.88757935 28.62044189 20.75268555 29.25341797 C17.99578642 30.79182082 15.23950783 32.331328 12.48364258 33.87158203 C11.29183222 34.53738882 10.0997771 35.20275769 8.9074707 35.86767578 C7.19157316 36.82468742 5.47663386 37.78341652 3.76171875 38.7421875 C2.2142395 39.60626221 2.2142395 39.60626221 0.63549805 40.48779297 C-1.2843677 41.58938152 -3.15829434 42.77219623 -5 44 C-6.953125 43.91796875 -6.953125 43.91796875 -9 43 C-10.859375 40.92578125 -10.859375 40.92578125 -12.75 38.3125 C-22.03100275 26.31885122 -37.01544882 18.94782079 -52 17 C-65.16701639 16.21701647 -77.54368451 16.38118534 -90 21 C-90.77085937 21.27714844 -91.54171875 21.55429687 -92.3359375 21.83984375 C-104.07853322 26.87570002 -112.44676192 38.13630083 -117.1875 49.65234375 C-122.58816802 65.25715856 -121.52480194 83.4991128 -114.421875 98.28515625 C-106.39076226 112.88224631 -94.94838721 119.81701747 -79.22363281 124.53271484 C-61.32587582 128.29383769 -41.27146028 125.61960541 -25.82421875 115.98828125 C-18.67723057 110.95672249 -12.70776357 105.37549625 -8 98 C-3.56631734 99.32374619 0.10572459 101.07461599 4.0546875 103.4765625 C5.16328125 104.146875 6.271875 104.8171875 7.4140625 105.5078125 C8.56778733 106.21341252 9.72143219 106.91914331 10.875 107.625 C12.05175274 108.33908674 13.2288332 109.05263372 14.40625 109.765625 C17.27409848 111.50513965 20.13849923 113.25007001 23 115 C20.86704026 120.53998458 17.76974734 124.44880792 14 129 C13.00806641 130.23169922 13.00806641 130.23169922 11.99609375 131.48828125 C-1.84551169 147.8789853 -24.03225561 158.79315563 -45.39526367 160.83886719 C-51.01015348 161.18621251 -56.6262282 161.18459816 -62.25 161.1875 C-63.48363281 161.19974609 -64.71726562 161.21199219 -65.98828125 161.22460938 C-93.05754676 161.26730538 -117.13752348 152.42180593 -136.75 133.6875 C-141.71979485 128.56195659 -145.52853716 123.22122682 -149 117 C-149.44859375 116.23558594 -149.8971875 115.47117188 -150.359375 114.68359375 C-161.21504755 94.8820429 -163.56981614 68.43371441 -157.83398438 46.76904297 C-150.53781872 21.81591075 -135.35033992 4.21166761 -112.88671875 -8.47265625 C-78.79663926 -26.50949127 -30.67704246 -23.77138788 0 0 Z " fill="#02028E" transform="translate(896,19)"/>
<path d="M0 0 C7.81741346 6.35650518 10.68265743 13.63542187 12.0703125 23.53515625 C12.49908812 31.4103351 9.9288411 39.92340039 5.125 46.1875 C-1.45039939 52.995363 -11.40845009 56.22708677 -20.6875 56.5 C-23.68508729 56.41097528 -26.39938642 56.06181539 -29.30883789 55.34692383 C-34.7887269 54.08304689 -40.31012865 53.26911339 -45.87109375 52.44921875 C-59.72794564 50.36013567 -73.54784119 48.0724224 -87.36401367 45.73071289 C-90.72100231 45.1617866 -94.07891697 44.59851845 -97.43705082 44.03639698 C-100.67869152 43.49268871 -103.9193641 42.94327109 -107.16015625 42.39453125 C-108.36398453 42.19350296 -109.56781281 41.99247467 -110.80812073 41.78535461 C-111.90534958 41.59813339 -113.00257843 41.41091217 -114.13305664 41.21801758 C-115.10054337 41.05465408 -116.06803009 40.89129059 -117.06483459 40.72297668 C-119.25 40.25 -119.25 40.25 -120.25 39.25 C-120.33775605 37.10441173 -120.35695219 34.95595579 -120.34765625 32.80859375 C-120.34443359 31.50341797 -120.34121094 30.19824219 -120.33789062 28.85351562 C-120.32953401 27.4648431 -120.32106905 26.07617123 -120.3125 24.6875 C-120.30748666 23.29492344 -120.30292347 21.90234519 -120.29882812 20.50976562 C-120.28699434 17.0898013 -120.2705088 13.66992156 -120.25 10.25 C-119.12207031 10.07984375 -117.99414062 9.9096875 -116.83203125 9.734375 C-105.40332454 7.9842429 -94.05381649 5.93624437 -82.70556641 3.72753906 C-73.5344424 1.94401167 -64.36789583 0.20612523 -55.12109375 -1.14453125 C-51.93608599 -1.64269089 -48.769662 -2.18891601 -45.59765625 -2.76171875 C-12.4863786 -8.68012193 -12.4863786 -8.68012193 0 0 Z " fill="#FCFCFD" transform="translate(193.25,44.75)"/>
<path d="M0 0 C36.96 0 73.92 0 112 0 C112 0.33 112 0.66 112 1 C75.37 1 38.74 1 1 1 C1.185625 12.529375 1.37125 24.05875 1.5625 35.9375 C2.01315767 67.82153027 1.9735291 99.67838562 1.5625 131.5625 C1.54327925 133.05486238 1.54327925 133.05486238 1.5236702 134.5773735 C1.3657903 146.71850548 1.19148007 158.85935267 1 171 C0.67 171 0.34 171 0 171 C-0.33 141.63 -0.66 112.26 -1 82 C-24.43 78.04 -47.86 74.08 -72 70 C-72 68.02 -72 66.04 -72 64 C-70.5291394 63.75878418 -70.5291394 63.75878418 -69.02856445 63.51269531 C-64.45599604 62.7617659 -59.88410465 62.00677328 -55.3125 61.25 C-54.07725082 61.04558289 -54.07725082 61.04558289 -52.81704712 60.83703613 C-42.50425676 59.12674383 -32.20300773 57.39123298 -21.96020508 55.29394531 C-14.64562591 53.82723911 -7.46565232 52.99542031 0 52 C0 34.84 0 17.68 0 0 Z " fill="#05058F" transform="translate(72,3)"/>
<path d="M0 0 C4.10997383 2.97023319 7.25331448 6.52556843 8.859375 11.34375 C9.7057546 19.07901671 9.63120496 25.26700466 4.6796875 31.53125 C-0.01613814 36.20692188 -4.50526147 37.57621558 -11.078125 37.96875 C-17.42294349 37.72811213 -21.63278825 35.79440488 -26.140625 31.34375 C-30.1406266 26.36813825 -30.72957353 21.20777293 -30.453125 14.953125 C-29.78288364 9.35660967 -27.88296236 5.7628673 -23.765625 2.03125 C-16.40817586 -3.71675714 -8.26613144 -4.62903361 0 0 Z " fill="#090890" transform="translate(838.140625,331.65625)"/>
<path d="M0 0 C2.64 0 5.28 0 8 0 C10.64 7.59 13.28 15.18 16 23 C17.77651205 20.33523193 18.70011304 18.31633801 19.7265625 15.33203125 C20.0359375 14.43935547 20.3453125 13.54667969 20.6640625 12.62695312 C20.98117188 11.69818359 21.29828125 10.76941406 21.625 9.8125 C21.94984375 8.87212891 22.2746875 7.93175781 22.609375 6.96289062 C23.41007552 4.64321411 24.20679035 2.32224648 25 0 C27.64 0 30.28 0 33 0 C34.98 12.54 36.96 25.08 39 38 C36.36 38 33.72 38 31 38 C29.68 31.4 28.36 24.8 27 18 C24.69 24.6 22.38 31.2 20 38 C17.69 38 15.38 38 13 38 C9.535 28.1 9.535 28.1 6 18 C3.84823861 20.15176139 3.98827924 24.46189732 3.5 27.4375 C2.13139464 35.73721072 2.13139464 35.73721072 1 38 C-1.31 38 -3.62 38 -6 38 C-5.22695812 29.9052741 -3.84630635 21.94230435 -2.4375 13.9375 C-2.20092045 12.58142405 -1.96459042 11.22530454 -1.72851562 9.86914062 C-1.15478858 6.57899167 -0.5785527 3.28930321 0 0 Z " fill="#0B0A91" transform="translate(202,330)"/>
<path d="M0 0 C2.64 0 5.28 0 8 0 C10.64 7.59 13.28 15.18 16 23 C17.77651205 20.33523193 18.70011304 18.31633801 19.7265625 15.33203125 C20.0359375 14.43935547 20.3453125 13.54667969 20.6640625 12.62695312 C20.98117187 11.69818359 21.29828125 10.76941406 21.625 9.8125 C21.94984375 8.87212891 22.2746875 7.93175781 22.609375 6.96289062 C23.41007552 4.64321411 24.20679035 2.32224648 25 0 C27.64 0 30.28 0 33 0 C33.85769012 4.92905695 34.71210233 9.85866656 35.56347656 14.78881836 C35.85359018 16.46605796 36.14460026 18.14314276 36.43652344 19.82006836 C36.85587346 22.22990462 37.27200063 24.64027848 37.6875 27.05078125 C37.81874268 27.80087967 37.94998535 28.55097809 38.08520508 29.32380676 C38.58830697 32.25761879 39 35.01699745 39 38 C36.36 38 33.72 38 31 38 C30.91435791 37.42967041 30.82871582 36.85934082 30.74047852 36.27172852 C30.352072 33.70132184 29.95737171 31.13192106 29.5625 28.5625 C29.42779297 27.66466797 29.29308594 26.76683594 29.15429688 25.84179688 C29.02216797 24.98779297 28.89003906 24.13378906 28.75390625 23.25390625 C28.63345947 22.46314697 28.5130127 21.6723877 28.38891602 20.85766602 C28.17537558 18.99297383 28.17537558 18.99297383 27 18 C24.69 24.6 22.38 31.2 20 38 C17.69 38 15.38 38 13 38 C9.535 28.1 9.535 28.1 6 18 C5.67 18 5.34 18 5 18 C4.01 24.6 3.02 31.2 2 38 C-0.64 38 -3.28 38 -6 38 C-5.22695812 29.9052741 -3.84630635 21.94230435 -2.4375 13.9375 C-2.20092045 12.58142405 -1.96459042 11.22530454 -1.72851562 9.86914062 C-1.15478858 6.57899167 -0.5785527 3.28930321 0 0 Z " fill="#0A0A91" transform="translate(914,330)"/>
<path d="M0 0 C8 0 8 0 9.76269531 1.37353516 C10.11428711 2.00565918 10.46587891 2.6377832 10.828125 3.2890625 C11.23546875 3.98386719 11.6428125 4.67867187 12.0625 5.39453125 C12.454375 6.13058594 12.84625 6.86664063 13.25 7.625 C14.0671475 9.05500812 14.88484799 10.48470041 15.703125 11.9140625 C16.22374512 12.8723999 16.22374512 12.8723999 16.75488281 13.85009766 C18.37396618 16.64571494 20.20797434 19.3119615 22 22 C22.33 14.74 22.66 7.48 23 0 C25.64 0 28.28 0 31 0 C31 12.87 31 25.74 31 39 C23 39 23 39 21.12963867 37.41113281 C20.7297876 36.68249023 20.32993652 35.95384766 19.91796875 35.203125 C19.46099609 34.4090625 19.00402344 33.615 18.53320312 32.796875 C18.08912109 31.95640625 17.64503906 31.1159375 17.1875 30.25 C16.26554442 28.60868826 15.34240513 26.96804076 14.41796875 25.328125 C14.02375732 24.5949707 13.6295459 23.86181641 13.22338867 23.10644531 C11.82507294 20.60417751 11.82507294 20.60417751 9 17 C8.67 24.26 8.34 31.52 8 39 C5.36 39 2.72 39 0 39 C0 26.13 0 13.26 0 0 Z " fill="#111194" transform="translate(369,246)"/>
<path d="M0 0 C8 0 8 0 9.87036133 1.58886719 C10.2702124 2.31750977 10.67006348 3.04615234 11.08203125 3.796875 C11.53900391 4.5909375 11.99597656 5.385 12.46679688 6.203125 C12.91087891 7.04359375 13.35496094 7.8840625 13.8125 8.75 C14.73445558 10.39131174 15.65759487 12.03195924 16.58203125 13.671875 C16.97624268 14.4050293 17.3704541 15.13818359 17.77661133 15.89355469 C19.17492706 18.39582249 19.17492706 18.39582249 22 22 C22.33 14.74 22.66 7.48 23 0 C25.64 0 28.28 0 31 0 C31 12.87 31 25.74 31 39 C24 39 24 39 21.8125 36.98046875 C21.214375 36.05878906 20.61625 35.13710938 20 34.1875 C19.01 32.69863281 19.01 32.69863281 18 31.1796875 C17.34 30.13039063 16.68 29.08109375 16 28 C15.319375 26.95070313 14.63875 25.90140625 13.9375 24.8203125 C12.26803952 22.22860973 10.63085701 19.61616646 9 17 C8.67 24.26 8.34 31.52 8 39 C5.36 39 2.72 39 0 39 C0 26.13 0 13.26 0 0 Z " fill="#0F0F93" transform="translate(110,246)"/>
<path d="M0 0 C4.18156284 2.46110433 6.65957652 4.60038117 8.8046875 9.05859375 C9.63717056 14.63098034 9.55094269 19.5394314 7.0546875 24.62109375 C2.79978432 29.2305722 -0.62379842 31.17837734 -6.9453125 31.43359375 C-11.54701187 31.37985128 -14.27962384 30.50268509 -17.7890625 27.53125 C-21.41174825 23.73749298 -22.38736837 20.17456983 -22.6328125 15.05859375 C-22.47675742 10.33438102 -21.37596685 7.66906626 -18.1953125 4.05859375 C-12.9052879 -0.71533089 -6.84796639 -2.93658345 0 0 Z " fill="#FBFBFD" transform="translate(98.1953125,333.94140625)"/>
<path d="M0 0 C2.03471882 1.4443088 3.39204493 2.9917427 4.62890625 5.15625 C3.30890625 6.47625 1.98890625 7.79625 0.62890625 9.15625 C-0.13421875 8.846875 -0.89734375 8.5375 -1.68359375 8.21875 C-7.01566195 6.11072304 -11.65724688 5.31785461 -17.37109375 6.15625 C-20.19533663 8.34647918 -21.78617978 9.98642207 -23.37109375 13.15625 C-23.87981468 19.26090114 -23.43815353 22.27577826 -19.37109375 27.15625 C-15.33497986 29.84699259 -12.11023466 29.71330691 -7.37109375 29.15625 C-3.60710807 27.4443313 -3.60710807 27.4443313 -1.37109375 24.15625 C-5.00109375 24.15625 -8.63109375 24.15625 -12.37109375 24.15625 C-12.37109375 21.84625 -12.37109375 19.53625 -12.37109375 17.15625 C-5.77109375 17.15625 0.82890625 17.15625 7.62890625 17.15625 C7.62890625 24.50917744 6.94388579 26.74782878 2.62890625 32.15625 C-2.93308812 37.32095906 -7.70092371 37.57416068 -15.0703125 37.4921875 C-19.87504 37.00318565 -22.9504584 35.54453892 -26.37109375 32.15625 C-31.09267646 25.96730825 -33.24581752 20.96628366 -32.37109375 13.15625 C-30.21371531 5.96932063 -25.36185628 1.52913583 -19.05859375 -2.21875 C-12.18350601 -3.81760761 -6.18962529 -3.50120218 0 0 Z " fill="#0A0991" transform="translate(588.37109375,331.84375)"/>
<path d="M0 0 C7 0 7 0 8.93359375 1.765625 C9.42988281 2.58546875 9.92617187 3.4053125 10.4375 4.25 C11.0046875 5.14976562 11.571875 6.04953125 12.15625 6.9765625 C12.7646875 7.97429687 13.373125 8.97203125 14 10 C15.46061485 12.22113283 16.95078693 14.42110492 18.4375 16.625 C19.613125 18.39875 20.78875 20.1725 22 22 C22.33 14.74 22.66 7.48 23 0 C25.64 0 28.28 0 31 0 C31 12.54 31 25.08 31 38 C23 38 23 38 20.80664062 36.10400391 C20.26201172 35.23694824 19.71738281 34.36989258 19.15625 33.4765625 C18.55039063 32.538125 17.94453125 31.5996875 17.3203125 30.6328125 C16.71960937 29.64023437 16.11890625 28.64765625 15.5 27.625 C14.55253906 26.14773438 14.55253906 26.14773438 13.5859375 24.640625 C9 17.3944467 9 17.3944467 9 15 C8.34 15 7.68 15 7 15 C7 22.59 7 30.18 7 38 C4.69 38 2.38 38 0 38 C0 25.46 0 12.92 0 0 Z " fill="#090991" transform="translate(1024,330)"/>
<path d="M0 0 C7 0 7 0 8.63330078 1.25 C8.98376465 1.8275 9.33422852 2.405 9.6953125 3 C10.10136719 3.64066406 10.50742187 4.28132813 10.92578125 4.94140625 C11.32152344 5.62074219 11.71726562 6.30007813 12.125 7 C12.52847656 7.64839844 12.93195312 8.29679687 13.34765625 8.96484375 C14.11814496 10.20796451 14.87887249 11.4572401 15.62548828 12.71484375 C17.70448386 16.17122006 19.86227308 19.57963694 22 23 C22.33 15.41 22.66 7.82 23 0 C25.31 0 27.62 0 30 0 C30 12.54 30 25.08 30 38 C23 38 23 38 20.8125 35.98046875 C20.214375 35.05878906 19.61625 34.13710938 19 33.1875 C18.34 32.19492187 17.68 31.20234375 17 30.1796875 C16.34 29.13039063 15.68 28.08109375 15 27 C14.319375 25.95070313 13.63875 24.90140625 12.9375 23.8203125 C11.26803952 21.22860973 9.63085701 18.61616646 8 16 C7.67 23.26 7.34 30.52 7 38 C4.69 38 2.38 38 0 38 C0 25.46 0 12.92 0 0 Z " fill="#04038E" transform="translate(506,330)"/>
<path d="M0 0 C16 0 16 0 20.5 2.375 C22.95265687 5.09228564 23.51189553 7.44222969 23.75 11.0625 C23.43379598 15.97469265 21.64440262 17.72938227 18 21 C18.29406442 25.21982443 20.14447598 28.59887903 22.0625 32.3125 C22.61035156 33.38113281 23.15820312 34.44976562 23.72265625 35.55078125 C24.35494141 36.76314453 24.35494141 36.76314453 25 38 C19.87556372 38.69483882 19.87556372 38.69483882 17 38 C14.69572952 35.64894231 13.39884256 32.95585814 12 30 C11.01 28.02 10.02 26.04 9 24 C8.67 28.62 8.34 33.24 8 38 C5.36 38 2.72 38 0 38 C0 25.46 0 12.92 0 0 Z " fill="#0D0C92" transform="translate(867,330)"/>
<path d="M0 0 C16.65384615 0 16.65384615 0 21.8125 4.625 C23.67116759 8.34233519 23.8238632 11.93901061 23 16 C20.4375 18.75 20.4375 18.75 18 21 C18.29356236 25.21995894 20.14437491 28.59868333 22.0625 32.3125 C22.61035156 33.38113281 23.15820312 34.44976562 23.72265625 35.55078125 C24.35494141 36.76314453 24.35494141 36.76314453 25 38 C19.87556372 38.69483882 19.87556372 38.69483882 17 38 C14.69572952 35.64894231 13.39884256 32.95585814 12 30 C11.01 28.02 10.02 26.04 9 24 C8.67 28.62 8.34 33.24 8 38 C5.36 38 2.72 38 0 38 C0 25.46 0 12.92 0 0 Z " fill="#0C0C92" transform="translate(727,330)"/>
<path d="M0 0 C15 0 15 0 21 4 C23.668947 8.0034205 23.83267518 11.29249972 23 16 C20.625 19.0625 20.625 19.0625 18 21 C17.34 21 16.68 21 16 21 C16.5775 21.97582031 17.155 22.95164062 17.75 23.95703125 C18.50034023 25.24198889 19.2503216 26.52715612 20 27.8125 C20.3815625 28.45509766 20.763125 29.09769531 21.15625 29.75976562 C24 34.66015625 24 34.66015625 24 38 C21.36 38 18.72 38 16 38 C13.69 33.71 11.38 29.42 9 25 C8.67 29.29 8.34 33.58 8 38 C5.36 38 2.72 38 0 38 C0 25.46 0 12.92 0 0 Z " fill="#0B0A91" transform="translate(312,330)"/>
<path d="M0 0 C2.64 0 5.28 0 8 0 C9.99811278 5.08865881 11.99182902 10.17900921 13.98144531 15.27099609 C14.65926719 17.00389354 15.33829962 18.73631798 16.01855469 20.46826172 C16.99470665 22.95417641 17.96652833 25.44174566 18.9375 27.9296875 C19.24373291 28.70682098 19.54996582 29.48395447 19.86547852 30.28463745 C22 35.77225659 22 35.77225659 22 38 C19.36 38 16.72 38 14 38 C13.01 34.535 13.01 34.535 12 31 C6.72 31 1.44 31 -4 31 C-4.66 33.31 -5.32 35.62 -6 38 C-8.64 38 -11.28 38 -14 38 C-13.37640404 32.36929526 -11.39173399 27.56323334 -9.25 22.375 C-8.89164062 21.49360352 -8.53328125 20.61220703 -8.1640625 19.70410156 C-7.11644165 17.1330968 -6.06010961 14.56587694 -5 12 C-4.71447266 11.30745117 -4.42894531 10.61490234 -4.13476562 9.90136719 C-2.76970496 6.59530716 -1.39278582 3.29447414 0 0 Z " fill="#0B0B92" transform="translate(271,330)"/>
<path d="M0 0 C2.64 0 5.28 0 8 0 C9.99811278 5.08865881 11.99182902 10.17900921 13.98144531 15.27099609 C14.65926719 17.00389354 15.33829962 18.73631798 16.01855469 20.46826172 C16.99470665 22.95417641 17.96652833 25.44174566 18.9375 27.9296875 C19.24373291 28.70682098 19.54996582 29.48395447 19.86547852 30.28463745 C22 35.77225659 22 35.77225659 22 38 C19.36 38 16.72 38 14 38 C13.34 36.02 12.68 34.04 12 32 C6.72 31.67 1.44 31.34 -4 31 C-4.66 33.31 -5.32 35.62 -6 38 C-8.64 38 -11.28 38 -14 38 C-11.90624333 29.24744737 -8.77718521 21.1053917 -5.3125 12.8125 C-4.79562349 11.56209701 -4.27934379 10.31144713 -3.76367188 9.06054688 C-2.51493215 6.0378965 -1.26028852 3.01784896 0 0 Z " fill="#0B0A91" transform="translate(983,330)"/>
<path d="M0 0 C7.26 0 14.52 0 22 0 C22 2.64 22 5.28 22 8 C17.38 8 12.76 8 8 8 C8 9.98 8 11.96 8 14 C12.62 14 17.24 14 22 14 C22 16.31 22 18.62 22 21 C21 22 21 22 18.05859375 22.09765625 C16.86363281 22.08605469 15.66867187 22.07445312 14.4375 22.0625 C12.64119141 22.04896484 12.64119141 22.04896484 10.80859375 22.03515625 C9.88175781 22.02355469 8.95492188 22.01195312 8 22 C8 24.97 8 27.94 8 31 C12.62 31 17.24 31 22 31 C22 33.31 22 35.62 22 38 C20.41062444 39.58937556 18.76100154 39.12981143 16.5625 39.1328125 C15.22058594 39.13474609 15.22058594 39.13474609 13.8515625 39.13671875 C12.91054688 39.13285156 11.96953125 39.12898438 11 39.125 C9.58847656 39.13080078 9.58847656 39.13080078 8.1484375 39.13671875 C7.25382812 39.13542969 6.35921875 39.13414062 5.4375 39.1328125 C4.61121094 39.13168457 3.78492188 39.13055664 2.93359375 39.12939453 C1 39 1 39 0 38 C-0.08861992 35.1883662 -0.11522355 32.40141745 -0.09765625 29.58984375 C-0.0962413 28.74780899 -0.09482635 27.90577423 -0.09336853 27.03822327 C-0.08775263 24.33794665 -0.07519748 21.63775172 -0.0625 18.9375 C-0.05748705 17.11132932 -0.05292379 15.28515734 -0.04882812 13.45898438 C-0.03862716 8.97259915 -0.01905499 4.48639145 0 0 Z " fill="#181897" transform="translate(493,246)"/>
<path d="M0 0 C2.27446541 1.63383148 3.05791736 2.90528867 4.06640625 5.484375 C2.74640625 6.804375 1.42640625 8.124375 0.06640625 9.484375 C-3.93359375 7.484375 -3.93359375 7.484375 -5.765625 6.44140625 C-9.68755604 4.71010336 -13.74667218 4.79332969 -17.93359375 5.484375 C-21.02158049 7.73495067 -21.02158049 7.73495067 -22.93359375 10.484375 C-23.26359375 10.814375 -23.59359375 11.144375 -23.93359375 11.484375 C-24.56425277 19.32408259 -24.56425277 19.32408259 -21.93359375 26.484375 C-17.96222496 28.93727925 -13.48548456 29.10142896 -8.93359375 28.484375 C-6.90333485 27.54733243 -4.89662793 26.55512092 -2.93359375 25.484375 C1.06640625 25.484375 1.06640625 25.484375 2.81640625 26.984375 C3.43515625 27.726875 3.43515625 27.726875 4.06640625 28.484375 C2.7660873 32.38533186 1.172519 33.39757876 -2.28125 35.46484375 C-8.52686637 37.86558878 -16.00507331 37.6827284 -22.16015625 35.1640625 C-26.71239221 32.40707452 -29.60864278 28.71270164 -32.30859375 24.171875 C-33.59122536 18.65655908 -34.03995339 12.88882495 -31.37109375 7.734375 C-23.45101734 -4.14573962 -12.33732825 -6.25554672 0 0 Z " fill="#0A0A91" transform="translate(1106.93359375,332.515625)"/>
<path d="M0 0 C3.84989347 1.75633826 5.75067384 3.40000979 7.390625 7.2265625 C5.740625 8.5465625 4.090625 9.8665625 2.390625 11.2265625 C1.441875 10.5665625 0.493125 9.9065625 -0.484375 9.2265625 C-5.0150851 6.62440314 -9.50111911 6.49069984 -14.609375 7.2265625 C-17.35109967 8.32517977 -18.34524963 8.77754938 -19.859375 11.3515625 C-21.36021189 17.10477058 -21.29105909 22.86319432 -18.609375 28.2265625 C-14.55697384 30.92816327 -9.3233694 30.93779674 -4.609375 30.2265625 C-2.25641822 29.1221134 -0.64011071 27.89280718 1.390625 26.2265625 C4.01249994 27.27531248 5.18433861 27.87587563 6.640625 30.3515625 C6.888125 30.9703125 7.135625 31.5890625 7.390625 32.2265625 C6.28994504 33.04377967 5.18492769 33.85515701 4.078125 34.6640625 C3.46324219 35.11652344 2.84835937 35.56898438 2.21484375 36.03515625 C-3.2338773 39.5937428 -10.38562406 38.73564812 -16.609375 38.2265625 C-21.54789717 35.97390327 -24.41831926 32.51169449 -27.609375 28.2265625 C-29.74232025 21.82772674 -29.76222044 13.9165352 -27.109375 7.7265625 C-26.284375 6.9015625 -25.459375 6.0765625 -24.609375 5.2265625 C-24.09632813 4.67226562 -23.58328125 4.11796875 -23.0546875 3.546875 C-16.65137647 -2.41672368 -8.12856289 -2.40936445 0 0 Z " fill="#080890" transform="translate(457.609375,246.7734375)"/>
<path d="M0 0 C16 0 16 0 22 4 C24.10857453 6.65863745 24.00023614 7.98701207 23.9375 11.4375 C22.80563918 15.73857111 21.48874052 17.28653515 18 20 C16.01513134 20.71045115 14.01610119 21.3837367 12 22 C12.78246094 22.97582031 13.56492187 23.95164062 14.37109375 24.95703125 C15.39345034 26.24201156 16.41557364 27.52717751 17.4375 28.8125 C18.2119043 29.77639648 18.2119043 29.77639648 19.00195312 30.75976562 C19.49501953 31.38173828 19.98808594 32.00371094 20.49609375 32.64453125 C20.95169678 33.21534424 21.4072998 33.78615723 21.87670898 34.37426758 C23 36 23 36 24 39 C21.70385742 39.23022461 21.70385742 39.23022461 19 39 C17.27075195 37.45532227 17.27075195 37.45532227 15.73828125 35.31640625 C15.17689453 34.55392578 14.61550781 33.79144531 14.03710938 33.00585938 C13.46798828 32.19955078 12.89886719 31.39324219 12.3125 30.5625 C11.16592916 28.97817071 10.01633518 27.39602349 8.86328125 25.81640625 C8.36094971 25.10943604 7.85861816 24.40246582 7.34106445 23.67407227 C6.08675443 21.86901849 6.08675443 21.86901849 4 21 C4 26.94 4 32.88 4 39 C2.68 39 1.36 39 0 39 C0 26.13 0 13.26 0 0 Z " fill="#121295" transform="translate(1082,246)"/>
<path d="M0 0 C6.93 0 13.86 0 21 0 C21 2.64 21 5.28 21 8 C16.38 8 11.76 8 7 8 C7 9.98 7 11.96 7 14 C11.62 14 16.24 14 21 14 C21 16.64 21 19.28 21 22 C16.38 22 11.76 22 7 22 C7 24.97 7 27.94 7 31 C11.62 31 16.24 31 21 31 C21 33.64 21 36.28 21 39 C14.07 39 7.14 39 0 39 C0 26.13 0 13.26 0 0 Z " fill="#101094" transform="translate(320,246)"/>
<path d="M0 0 C7.26 0 14.52 0 22 0 C22 2.31 22 4.62 22 7 C21 8 21 8 18.05859375 8.09765625 C16.26615234 8.08025391 16.26615234 8.08025391 14.4375 8.0625 C12.64119141 8.04896484 12.64119141 8.04896484 10.80859375 8.03515625 C9.88175781 8.02355469 8.95492188 8.01195312 8 8 C8 9.98 8 11.96 8 14 C12.62 14 17.24 14 22 14 C22 16.31 22 18.62 22 21 C17.38 21 12.76 21 8 21 C8 24.3 8 27.6 8 31 C12.29 31 16.58 31 21 31 C21 33.31 21 35.62 21 38 C14.07 38 7.14 38 0 38 C0 25.46 0 12.92 0 0 Z " fill="#111194" transform="translate(1130,330)"/>
<path d="M0 0 C2.31 0 4.62 0 7 0 C7.33 3.96 7.66 7.92 8 12 C8.81791016 10.700625 8.81791016 10.700625 9.65234375 9.375 C15.5956362 0.43016549 15.5956362 0.43016549 19.6015625 -0.796875 C21.84614335 -0.75412108 23.8274776 -0.55468657 26 0 C24.25477062 4.05214179 21.5771843 7.30603961 18.875 10.75 C18.40707031 11.35199219 17.93914062 11.95398438 17.45703125 12.57421875 C16.30774993 14.05186616 15.15428765 15.52626005 14 17 C17.89505808 23.16525465 21.8264942 29.2937069 25.93359375 35.3203125 C27 37 27 37 27 38 C23.71351389 38.90902807 21.26182367 39.07419456 18 38 C13.92143725 33.51171862 10.71309449 28.42618899 8 23 C7.67 27.95 7.34 32.9 7 38 C4.69 38 2.38 38 0 38 C0 25.46 0 12.92 0 0 Z " fill="#06058F" transform="translate(356,330)"/>
<path d="M0 0 C15 0 15 0 21 3 C23.82644678 7.23967017 23.65911947 11.02086859 23 16 C20.89495409 19.55680172 19.91593192 20.69468936 16 22 C13.36 22 10.72 22 8 22 C8 27.28 8 32.56 8 38 C5.36 38 2.72 38 0 38 C0 25.46 0 12.92 0 0 Z " fill="#0D0D93" transform="translate(643,330)"/>
<path d="M0 0 C6.93 0 13.86 0 21 0 C21 2.64 21 5.28 21 8 C16.71 8 12.42 8 8 8 C8 9.98 8 11.96 8 14 C12.29 14 16.58 14 21 14 C21 16.31 21 18.62 21 21 C16.71 21 12.42 21 8 21 C8 24.3 8 27.6 8 31 C12.29 31 16.58 31 21 31 C21 33.31 21 35.62 21 38 C14.07 38 7.14 38 0 38 C0 25.46 0 12.92 0 0 Z " fill="#101094" transform="translate(686,330)"/>
<path d="M0 0 C2.31 0 4.62 0 7 0 C7.01981934 0.86802246 7.03963867 1.73604492 7.06005859 2.63037109 C7.13809872 5.84726267 7.22478881 9.06377045 7.31738281 12.28027344 C7.35569327 13.67308572 7.39054259 15.06599765 7.421875 16.45898438 C7.46747907 18.45986308 7.52651623 20.46042146 7.5859375 22.4609375 C7.6173584 23.66540527 7.6487793 24.86987305 7.68115234 26.11083984 C7.70915226 29.1260018 7.70915226 29.1260018 10 31 C12.5 31.33333333 12.5 31.33333333 15 31 C17.79177569 28.20822431 17.31213484 26.36816428 17.4140625 22.4609375 C17.45273437 21.15898437 17.49140625 19.85703125 17.53125 18.515625 C17.56270763 17.13542138 17.59395491 15.75521296 17.625 14.375 C17.66317934 12.98695459 17.70223105 11.59893289 17.7421875 10.2109375 C17.83672943 6.80742815 17.92227897 3.40392835 18 0 C20.31 0 22.62 0 25 0 C25.12415248 4.44733299 25.21459457 8.8937326 25.2746582 13.34228516 C25.29971095 14.85353174 25.33376377 16.36465824 25.37719727 17.87548828 C25.4382669 20.05531501 25.46629916 22.23353262 25.48828125 24.4140625 C25.51446533 25.7232666 25.54064941 27.0324707 25.56762695 28.38134766 C24.82576311 33.11076956 23.35237596 34.6555105 20 38 C16.03476986 39.98261507 11.31072279 39.55250109 7 39 C3.32469086 37.16234543 1.3163107 34.94893209 0 31 C-0.08397157 28.64319787 -0.10728187 26.28405919 -0.09765625 23.92578125 C-0.0962413 23.2419487 -0.09482635 22.55811615 -0.09336853 21.8535614 C-0.08777876 19.67316278 -0.07522822 17.49286749 -0.0625 15.3125 C-0.05748367 13.83268378 -0.052921 12.35286594 -0.04882812 10.87304688 C-0.03781271 7.24866443 -0.02055512 3.6243423 0 0 Z " fill="#03038E" transform="translate(264,246)"/>
<path d="M0 0 C6.6 0 13.2 0 20 0 C20 2.31 20 4.62 20 7 C15.71 7 11.42 7 7 7 C7 9.31 7 11.62 7 14 C11.62 14 16.24 14 21 14 C21 16.31 21 18.62 21 21 C16.38 21 11.76 21 7 21 C7 24.3 7 27.6 7 31 C11.62 31 16.24 31 21 31 C21 33.31 21 35.62 21 38 C14.07 38 7.14 38 0 38 C0 25.46 0 12.92 0 0 Z " fill="#070790" transform="translate(402,330)"/>
<path d="M0 0 C6.6 0 13.2 0 20 0 C20 2.64 20 5.28 20 8 C16.04 8 12.08 8 8 8 C8 9.98 8 11.96 8 14 C11.96 14 15.92 14 20 14 C20.04241723 16.33294775 20.04092937 18.66702567 20 21 C19 22 19 22 16.49609375 22.09765625 C13.6640625 22.06510417 10.83203125 22.03255208 8 22 C8 27.61 8 33.22 8 39 C5.36 39 2.72 39 0 39 C0 26.13 0 13.26 0 0 Z " fill="#171797" transform="translate(171,246)"/>
<path d="M0 0 C3.14588913 1.67958487 5.26554725 3.99847353 7.375 6.875 C8.75017467 11.55059389 8.55896687 14.92347121 6.3125 19.25 C2.76760474 23.46555112 0.56686019 24.80103363 -4.9375 25.5 C-9.68559962 25.32946334 -11.74460204 23.33290743 -15 20 C-17.69932537 15.95101194 -17.53528771 12.75067841 -17 8 C-15.699544 4.85152757 -14.4485648 3.38259939 -11.875 1.1875 C-7.83300774 -0.48201854 -4.30680991 -0.81890048 0 0 Z " fill="#F8F8FC" transform="translate(832,337)"/>
<path d="M0 0 C4.43808224 2.93317523 6.48857246 5.60731599 8.625 10.4375 C9.12 11.4275 9.12 11.4275 9.625 12.4375 C10.39932731 19.26681298 9.70208951 24.80484403 5.625 30.4375 C1.75565945 34.60366667 -2.53865698 37.02551721 -8.171875 37.84375 C-14.78175029 38.05358731 -19.24040748 37.38373373 -24.52734375 33.2578125 C-29.29048021 28.56516643 -30.60384141 24.06062302 -30.9375 17.4375 C-30.68065121 10.17234854 -28.04069942 5.96991445 -22.875 1.0625 C-15.41676261 -3.7853543 -7.87844384 -4.36398292 0 0 Z M-25.375 10.4375 C-27.45294433 14.59338866 -27.12528694 20.16091506 -25.69140625 24.51171875 C-23.43102021 28.83552773 -20.76128705 31.40681155 -16.375 33.4375 C-10.4364005 34.28863478 -5.4165768 33.91858874 -0.375 30.4375 C4.505019 25.02991137 4.98405042 21.57911533 4.8984375 14.421875 C4.52627272 10.35996227 3.46750919 8.35289404 0.625 5.4375 C-3.39905964 2.1978773 -7.20479545 0.75932959 -12.390625 1.05078125 C-18.16148513 2.17541738 -22.10097202 5.65238219 -25.375 10.4375 Z " fill="#121195" transform="translate(102.375,331.5625)"/>
<path d="M0 0 C6.27 0 12.54 0 19 0 C19 2.64 19 5.28 19 8 C15.37 8 11.74 8 8 8 C8 9.98 8 11.96 8 14 C11.63 14 15.26 14 19 14 C19 16.31 19 18.62 19 21 C15.37 21 11.74 21 8 21 C8 26.61 8 32.22 8 38 C5.36 38 2.72 38 0 38 C0 25.46 0 12.92 0 0 Z " fill="#0D0D93" transform="translate(771,330)"/>
<path d="M0 0 C0.66 0 1.32 0 2 0 C4.42845423 5.06852439 6.84931973 10.14057519 9.26318359 15.21606445 C10.08564312 16.94264501 10.91017801 18.66823853 11.73681641 20.39282227 C12.92375228 22.86999875 14.10321139 25.35061371 15.28125 27.83203125 C15.65310425 28.60400345 16.0249585 29.37597565 16.40808105 30.17134094 C19 35.65838488 19 35.65838488 19 39 C17.68 39 16.36 39 15 39 C13.02 35.04 11.04 31.08 9 27 C3.72 27 -1.56 27 -7 27 C-8.98 30.96 -10.96 34.92 -13 39 C-14.32 39 -15.64 39 -17 39 C-16.36768471 35.01965046 -15.11874815 31.75231831 -13.41796875 28.10546875 C-12.89783203 26.98462891 -12.37769531 25.86378906 -11.84179688 24.70898438 C-11.29587891 23.54689453 -10.74996094 22.38480469 -10.1875 21.1875 C-9.38602539 19.46176758 -9.38602539 19.46176758 -8.56835938 17.70117188 C-5.79814044 11.755253 -2.97087966 5.84824495 0 0 Z " fill="#0F0E93" transform="translate(594,246)"/>
<path d="M0 0 C3.16069393 2.64724535 4.63294512 6.01266637 6.3203125 9.6796875 C6.62444061 10.32946564 6.92856873 10.97924377 7.24191284 11.64871216 C7.88208019 13.02066981 8.51898579 14.39415353 9.15283203 15.76904297 C10.12023278 17.86467303 11.10029942 19.95402058 12.08203125 22.04296875 C12.70389339 23.37985118 13.32501194 24.7170798 13.9453125 26.0546875 C14.23697296 26.67568329 14.52863342 27.29667908 14.82913208 27.93649292 C16.35579415 31.26914343 17.45693305 34.37011646 18 38 C16.68 38 15.36 38 14 38 C13.16180842 36.37750059 12.3295884 34.75191503 11.5 33.125 C11.0359375 32.22007812 10.571875 31.31515625 10.09375 30.3828125 C9 28 9 28 9 26 C3.39 26 -2.22 26 -8 26 C-8.66 27.98 -9.32 29.96 -10 32 C-10.94887818 34.35913748 -11.97560606 36.67183195 -13 39 C-14.65 39 -16.3 39 -18 39 C-16.54103347 34.30090252 -14.65708187 29.89003967 -12.55859375 25.44921875 C-12.23085464 24.74980667 -11.90311554 24.05039459 -11.56544495 23.32978821 C-10.87701573 21.86258094 -10.18696182 20.396135 -9.49536133 18.93041992 C-8.43343502 16.67888127 -7.37748928 14.42460839 -6.32226562 12.16992188 C-5.65139171 10.74202299 -4.98017982 9.31428283 -4.30859375 7.88671875 C-3.99192245 7.21074142 -3.67525116 6.5347641 -3.34898376 5.83830261 C-1.11557155 1.11557155 -1.11557155 1.11557155 0 0 Z " fill="#0D0D92" transform="translate(1035,246)"/>
<path d="M0 0 C7.26 0 14.52 0 22 0 C22 2.64 22 5.28 22 8 C19.69 8 17.38 8 15 8 C15 17.9 15 27.8 15 38 C12.36 38 9.72 38 7 38 C7 27.77 7 17.54 7 7 C4.69 7 2.38 7 0 7 C0 4.69 0 2.38 0 0 Z " fill="#0E0D92" transform="translate(438,330)"/>
<path d="M0 0 C1.32 0 2.64 0 4 0 C4 5.28 4 10.56 4 16 C10.27 16 16.54 16 23 16 C23 10.72 23 5.44 23 0 C24.32 0 25.64 0 27 0 C27 12.87 27 25.74 27 39 C25.68 39 24.36 39 23 39 C23 32.73 23 26.46 23 20 C16.73 20 10.46 20 4 20 C4 26.27 4 32.54 4 39 C2.68 39 1.36 39 0 39 C0 26.13 0 13.26 0 0 Z " fill="#070790" transform="translate(912,246)"/>
<path d="M0 0 C1.32 0 2.64 0 4 0 C4 5.28 4 10.56 4 16 C10.27 16 16.54 16 23 16 C23 10.72 23 5.44 23 0 C24.32 0 25.64 0 27 0 C27 12.87 27 25.74 27 39 C25.68 39 24.36 39 23 39 C23 32.73 23 26.46 23 20 C16.73 20 10.46 20 4 20 C4 26.27 4 32.54 4 39 C2.68 39 1.36 39 0 39 C0 26.13 0 13.26 0 0 Z " fill="#131295" transform="translate(767,246)"/>
<path d="M0 0 C7.26 0 14.52 0 22 0 C22 1.32 22 2.64 22 4 C16.06 4 10.12 4 4 4 C4 7.96 4 11.92 4 16 C9.94 16 15.88 16 22 16 C22 17.32 22 18.64 22 20 C16.06 20 10.12 20 4 20 C4 24.95 4 29.9 4 35 C9.94 35 15.88 35 22 35 C22 36.32 22 37.64 22 39 C14.74 39 7.48 39 0 39 C0 26.13 0 13.26 0 0 Z " fill="#0D0C92" transform="translate(970,246)"/>
<path d="M0 0 C7.26 0 14.52 0 22 0 C22 1.32 22 2.64 22 4 C16.06 4 10.12 4 4 4 C4 7.96 4 11.92 4 16 C9.94 16 15.88 16 22 16 C22 17.32 22 18.64 22 20 C16.06 20 10.12 20 4 20 C4 24.95 4 29.9 4 35 C9.94 35 15.88 35 22 35 C22 36.32 22 37.64 22 39 C14.74 39 7.48 39 0 39 C0 26.13 0 13.26 0 0 Z " fill="#0D0C92" transform="translate(825,246)"/>
<path d="M0 0 C2.31 0 4.62 0 7 0 C7 10.23 7 20.46 7 31 C10.63 31 14.26 31 18 31 C18.04241723 33.33294775 18.04092937 35.66702567 18 38 C17.67 38.33 17.34 38.66 17 39 C11.39 39 5.78 39 0 39 C0 26.13 0 13.26 0 0 Z " fill="#0C0B92" transform="translate(219,246)"/>
<path d="M0 0 C2.12261076 2.12261076 2.58711498 3.26899902 3.5078125 6.0625 C3.77207031 6.85914063 4.03632812 7.65578125 4.30859375 8.4765625 C4.57800781 9.30929687 4.84742188 10.14203125 5.125 11 C5.54072266 12.24910156 5.54072266 12.24910156 5.96484375 13.5234375 C8 19.71913485 8 19.71913485 8 22 C10.31 22 12.62 22 15 22 C15.17015625 21.33355469 15.3403125 20.66710937 15.515625 19.98046875 C17.30809028 13.16338007 19.49063574 6.58548894 22 0 C26.10553546 6.1583032 26.33093523 14.71942502 26 22 C28.64 22 31.28 22 34 22 C34 22.33 34 22.66 34 23 C29.21472996 23.77174358 24.6264975 24.12832378 19.78125 24.1328125 C18.78889343 24.13424759 18.78889343 24.13424759 17.77648926 24.13571167 C16.388264 24.13638724 15.00003546 24.13457684 13.61181641 24.13037109 C11.50546062 24.12501389 9.39931802 24.13033736 7.29296875 24.13671875 C5.93489537 24.13605786 4.57682212 24.13477647 3.21875 24.1328125 C2.00123047 24.13168457 0.78371094 24.13055664 -0.47070312 24.12939453 C-4.04356238 23.99840287 -7.47258474 23.56888327 -11 23 C-11 22.67 -11 22.34 -11 22 C-8.36 22 -5.72 22 -3 22 C-2.95101562 21.16597656 -2.90203125 20.33195312 -2.8515625 19.47265625 C-2.40682732 12.77862499 -1.6531796 6.50250641 0 0 Z " fill="#EFEFF7" transform="translate(919,346)"/>
<path d="M0 0 C2.12261076 2.12261076 2.58711498 3.26899902 3.5078125 6.0625 C3.77207031 6.85914063 4.03632813 7.65578125 4.30859375 8.4765625 C4.57800781 9.30929687 4.84742188 10.14203125 5.125 11 C5.54072266 12.24910156 5.54072266 12.24910156 5.96484375 13.5234375 C8 19.71913485 8 19.71913485 8 22 C10.31 22 12.62 22 15 22 C15.17015625 21.33355469 15.3403125 20.66710937 15.515625 19.98046875 C17.30809028 13.16338007 19.49063574 6.58548894 22 0 C22.33 0 22.66 0 23 0 C23.50400451 2.91602609 24.00334666 5.83272092 24.5 8.75 C24.64308594 9.575 24.78617188 10.4 24.93359375 11.25 C25.13662109 12.44882812 25.13662109 12.44882812 25.34375 13.671875 C25.46943359 14.4050293 25.59511719 15.13818359 25.72460938 15.89355469 C26 18 26 18 26 22 C28.64 22 31.28 22 34 22 C34 22.33 34 22.66 34 23 C29.21472996 23.77174358 24.6264975 24.12832378 19.78125 24.1328125 C18.78889343 24.13424759 18.78889343 24.13424759 17.77648926 24.13571167 C16.388264 24.13638724 15.00003546 24.13457684 13.61181641 24.13037109 C11.50546062 24.12501389 9.39931802 24.13033736 7.29296875 24.13671875 C5.93489537 24.13605786 4.57682212 24.13477647 3.21875 24.1328125 C2.00123047 24.13168457 0.78371094 24.13055664 -0.47070312 24.12939453 C-4.04356238 23.99840287 -7.47258474 23.56888327 -11 23 C-11 22.67 -11 22.34 -11 22 C-8.69 22 -6.38 22 -4 22 C-3.87153687 21.16021606 -3.87153687 21.16021606 -3.74047852 20.3034668 C-3.35051939 17.76438792 -2.95655484 15.22594632 -2.5625 12.6875 C-2.42779297 11.80642578 -2.29308594 10.92535156 -2.15429688 10.01757812 C-2.02216797 9.17001953 -1.89003906 8.32246094 -1.75390625 7.44921875 C-1.63345947 6.66893311 -1.5130127 5.88864746 -1.38891602 5.0847168 C-1 3 -1 3 0 0 Z " fill="#EEEEF7" transform="translate(207,346)"/>
<path d="M0 0 C2.64 0 5.28 0 8 0 C8 12.54 8 25.08 8 38 C5.36 38 2.72 38 0 38 C0 25.46 0 12.92 0 0 Z " fill="#111194" transform="translate(477,330)"/>
<path d="M0 0 C6.6 0 13.2 0 20 0 C20 1.32 20 2.64 20 4 C14.72 4 9.44 4 4 4 C4 7.96 4 11.92 4 16 C9.28 16 14.56 16 20 16 C20 17.32 20 18.64 20 20 C15.05 20 10.1 20 5 20 C5 25.94 5 31.88 5 38 C3.35 38 1.7 38 0 38 C0 25.46 0 12.92 0 0 Z " fill="#21209B" transform="translate(132,330)"/>
<path d="M0 0 C36.96 0 73.92 0 112 0 C112 0.33 112 0.66 112 1 C75.37 1 38.74 1 1 1 C1.185625 12.529375 1.37125 24.05875 1.5625 35.9375 C2.01315767 67.82153027 1.9735291 99.67838562 1.5625 131.5625 C1.54968616 132.55740826 1.53687233 133.55231651 1.5236702 134.5773735 C1.3657903 146.71850548 1.19148007 158.85935267 1 171 C0.67 171 0.34 171 0 171 C-0.15575682 159.74913527 -0.3038785 148.49819613 -0.4429636 137.24711227 C-0.50781168 132.01950426 -0.57502786 126.79195186 -0.64819336 121.56445312 C-0.96681837 98.67958396 -1.23468865 75.86358707 0 53 C-0.99 52.67 -1.98 52.34 -3 52 C-2.01 52 -1.02 52 0 52 C0 34.84 0 17.68 0 0 Z " fill="#4948AE" transform="translate(72,3)"/>
<path d="M0 0 C2.31 0 4.62 0 7 0 C7 12.87 7 25.74 7 39 C4.69 39 2.38 39 0 39 C0 26.13 0 13.26 0 0 Z " fill="#05048F" transform="translate(73,246)"/>
<path d="M0 0 C0.66 0 1.32 0 2 0 C3.71287809 2.51261908 5.31121226 5.02172654 6.875 7.625 C8.17297972 9.75491924 9.47328049 11.88329916 10.77929688 14.00830078 C11.55653954 15.27644991 12.3245423 16.55034276 13.08007812 17.83154297 C14.16964938 19.66396137 14.16964938 19.66396137 16 22 C19.6365731 22.97350778 19.6365731 22.97350778 23 23 C23 23.33 23 23.66 23 24 C18.13027787 24.96932858 13.50192751 25.15120386 8.5625 25.125 C7.47485352 25.13080078 7.47485352 25.13080078 6.36523438 25.13671875 C1.81046374 25.12853408 -2.50633814 24.74598339 -7 24 C-7 23.67 -7 23.34 -7 23 C-4.69 23 -2.38 23 0 23 C0 15.41 0 7.82 0 0 Z " fill="#EAEAF5" transform="translate(1031,345)"/>
<path d="M0 0 C2.55725549 3.19656936 4.69256981 5.96308369 6.76953125 9.390625 C7.26646484 10.18210937 7.76339844 10.97359375 8.27539062 11.7890625 C9.30390722 13.43573456 10.31690152 15.09219968 11.31445312 16.7578125 C13.89360822 21.08063932 13.89360822 21.08063932 17.94677734 23.76757812 C20.07374144 24.12574285 20.07374144 24.12574285 23 24 C23 24.33 23 24.66 23 25 C18.13027787 25.96932858 13.50192751 26.15120386 8.5625 26.125 C7.47485352 26.13080078 7.47485352 26.13080078 6.36523438 26.13671875 C1.81046374 26.12853408 -2.50633814 25.74598339 -7 25 C-7 24.67 -7 24.34 -7 24 C-4.69 24 -2.38 24 0 24 C0 16.08 0 8.16 0 0 Z " fill="#F0F0F8" transform="translate(513,344)"/>
<path d="M0 0 C7.26 0 14.52 0 22 0 C22 1.32 22 2.64 22 4 C19.03 4 16.06 4 13 4 C13 15.55 13 27.1 13 39 C11.68 39 10.36 39 9 39 C9 27.45 9 15.9 9 4 C6.03 4 3.06 4 0 4 C0 2.68 0 1.36 0 0 Z " fill="#0C0C92" transform="translate(718,246)"/>
<path d="M0 0 C6.93 0 13.86 0 21 0 C21 1.32 21 2.64 21 4 C18.03 4 15.06 4 12 4 C12 15.55 12 27.1 12 39 C10.68 39 9.36 39 8 39 C8 27.45 8 15.9 8 4 C5.36 4 2.72 4 0 4 C0 2.68 0 1.36 0 0 Z " fill="#131295" transform="translate(1132,246)"/>
<path d="M0 0 C6.93 0 13.86 0 21 0 C21 1.32 21 2.64 21 4 C18.36 4 15.72 4 13 4 C13 15.55 13 27.1 13 39 C11.68 39 10.36 39 9 39 C9 27.45 9 15.9 9 4 C6.03 4 3.06 4 0 4 C0 2.68 0 1.36 0 0 Z " fill="#131295" transform="translate(637,246)"/>
<path d="M0 0 C5.28 0 10.56 0 16 0 C18 4 18 4 18 7 C20.64 7 23.28 7 26 7 C26 7.33 26 7.66 26 8 C19.99632072 9.04918667 14.14870006 9.14965712 8.0625 9.125 C6.63647461 9.13080078 6.63647461 9.13080078 5.18164062 9.13671875 C-0.30572608 9.12915518 -5.57176253 8.8075064 -11 8 C-10.67 7.34 -10.34 6.68 -10 6 C-7.36 6.33 -4.72 6.66 -2 7 C-1.855625 6.21625 -1.71125 5.4325 -1.5625 4.625 C-1 2 -1 2 0 0 Z " fill="#F6F6FA" transform="translate(979,361)"/>
<path d="M0 0 C5.28 0 10.56 0 16 0 C16.66 2.31 17.32 4.62 18 7 C20.64 7 23.28 7 26 7 C26 7.33 26 7.66 26 8 C19.99632072 9.04918667 14.14870006 9.14965712 8.0625 9.125 C6.63647461 9.13080078 6.63647461 9.13080078 5.18164062 9.13671875 C-0.30572608 9.12915518 -5.57176253 8.8075064 -11 8 C-10.67 7.34 -10.34 6.68 -10 6 C-7.36 6.33 -4.72 6.66 -2 7 C-1.855625 6.21625 -1.71125 5.4325 -1.5625 4.625 C-1 2 -1 2 0 0 Z " fill="#F7F7FB" transform="translate(267,361)"/>
<path d="M0 0 C0.33 0 0.66 0 1 0 C1.02720824 2.68756955 1.0469388 5.37485798 1.0625 8.0625 C1.07087891 8.81466797 1.07925781 9.56683594 1.08789062 10.34179688 C1.09272461 11.45844727 1.09272461 11.45844727 1.09765625 12.59765625 C1.10551147 13.61098022 1.10551147 13.61098022 1.11352539 14.64477539 C0.96232791 17.781554 0.44412252 20.89114235 0 24 C-6.93 24 -13.86 24 -21 24 C-21 23.67 -21 23.34 -21 23 C-14.4 23 -7.8 23 -1 23 C-1 20.69 -1 18.38 -1 16 C-5.29 16 -9.58 16 -14 16 C-14 12.7 -14 9.4 -14 6 C-9.38 6 -4.76 6 0 6 C0 4.02 0 2.04 0 0 Z " fill="#EEEEF7" transform="translate(1152,345)"/>
<path d="M0 0 C10.33536091 -0.36912003 10.33536091 -0.36912003 13.328125 1.29296875 C15 3 15 3 15.5 6.5 C15 10 15 10 13.328125 11.70703125 C9.1106498 14.04928677 4.72527932 13.16875998 0 13 C0 8.71 0 4.42 0 0 Z " fill="#F6F6FA" transform="translate(1086,250)"/>
<path d="M0 0 C0.33 0 0.66 0 1 0 C1.50400451 2.91602609 2.00334666 5.83272092 2.5 8.75 C2.64308594 9.575 2.78617188 10.4 2.93359375 11.25 C3.06894531 12.04921875 3.20429688 12.8484375 3.34375 13.671875 C3.46943359 14.4050293 3.59511719 15.13818359 3.72460938 15.89355469 C4 18 4 18 4 22 C6.64 22 9.28 22 12 22 C12 22.33 12 22.66 12 23 C6.47291389 23.94220126 1.16241648 24.12116149 -4.4375 24.0625 C-5.26443359 24.05798828 -6.09136719 24.05347656 -6.94335938 24.04882812 C-8.96227146 24.03715811 -10.98114574 24.01922718 -13 24 C-13 23.67 -13 23.34 -13 23 C-11.02 23 -9.04 23 -7 23 C-6.773125 21.80375 -6.54625 20.6075 -6.3125 19.375 C-4.85180653 12.7112524 -2.37759517 6.37957787 0 0 Z " fill="#F6F6FA" transform="translate(229,346)"/>
<path d="M0 0 C2.93500256 2.93500256 4.54222056 5.56798985 6.625 9.125 C9.31421518 13.46064568 9.31421518 13.46064568 13.5234375 16.0078125 C15.75867918 16.2264008 17.77302837 16.2680614 20 16 C20 16.33 20 16.66 20 17 C11.01202562 18.38276529 1.97016685 18.63093943 -7 17 C-7 16.67 -7 16.34 -7 16 C-4.69 16 -2.38 16 0 16 C0 10.72 0 5.44 0 0 Z " fill="#EAEAF5" transform="translate(363,352)"/>
<path d="M0 0 C2.93758377 2.93758377 3.9851929 4.92772556 5.6875 8.625 C7.63877396 12.59947839 7.63877396 12.59947839 11.16796875 14.94140625 C13.60662406 15.27366031 13.60662406 15.27366031 17 15 C17 15.33 17 15.66 17 16 C8.94807789 17.19287735 1.02406125 17.68927605 -7 16 C-7 15.67 -7 15.34 -7 15 C-4.69 15 -2.38 15 0 15 C0 10.05 0 5.1 0 0 Z " fill="#EFEFF7" transform="translate(875,353)"/>
<path d="M0 0 C2.93758377 2.93758377 3.9851929 4.92772556 5.6875 8.625 C7.63877396 12.59947839 7.63877396 12.59947839 11.16796875 14.94140625 C13.60662406 15.27366031 13.60662406 15.27366031 17 15 C17 15.33 17 15.66 17 16 C8.94807789 17.19287735 1.02406125 17.68927605 -7 16 C-7 15.67 -7 15.34 -7 15 C-4.69 15 -2.38 15 0 15 C0 10.05 0 5.1 0 0 Z " fill="#F0F0F8" transform="translate(735,353)"/>
<path d="M0 0 C4.53465347 5.66831683 4.53465347 5.66831683 6.25 9.1875 C6.58515625 9.86167969 6.9203125 10.53585937 7.265625 11.23046875 C8 13 8 13 8 15 C12.455 14.505 12.455 14.505 17 14 C17 14.66 17 15.32 17 16 C8.55540739 17.25105076 0.42805098 17.465748 -8 16 C-8 15.67 -8 15.34 -8 15 C-5.36 15 -2.72 15 0 15 C0 10.05 0 5.1 0 0 Z " fill="#EDEDF7" transform="translate(320,353)"/>
<path d="M0 0 C4.40114397 0.50298788 6.71195019 2.08772731 10 5 C8.95125002 7.62187494 8.35068687 8.79371361 5.875 10.25 C5.25625 10.4975 4.6375 10.745 4 11 C3.60167969 10.52949219 3.20335937 10.05898438 2.79296875 9.57421875 C0.6382607 7.68239447 -0.89091882 7.33939211 -3.6875 6.8125 C-4.89986328 6.57466797 -4.89986328 6.57466797 -6.13671875 6.33203125 C-6.75160156 6.22246094 -7.36648438 6.11289062 -8 6 C-8 5.67 -8 5.34 -8 5 C-6.02 5 -4.04 5 -2 5 C-1.34 3.35 -0.68 1.7 0 0 Z " fill="#131395" transform="translate(1101,331)"/>
<path d="M0 0 C6 8 6 8 6 13 C2.04 13 -1.92 13 -6 13 C-4.02 8.71 -2.04 4.42 0 0 Z " fill="#EFEFF7" transform="translate(1035,255)"/>
<path d="M0 0 C0.66 0 1.32 0 2 0 C2.83819158 1.62249941 3.6704116 3.24808497 4.5 4.875 C4.9640625 5.77992188 5.428125 6.68484375 5.90625 7.6171875 C7 10 7 10 7 12 C3.04 12 -0.92 12 -5 12 C-3.35 8.04 -1.7 4.08 0 0 Z " fill="#F2F2F9" transform="translate(594,256)"/>
<path d="M0 0 C0.66 0 1.32 0 2 0 C2.50615298 1.26839526 3.00469099 2.53983102 3.5 3.8125 C3.91765625 4.87404297 3.91765625 4.87404297 4.34375 5.95703125 C5 8 5 8 5 11 C2.03 11 -0.94 11 -4 11 C-2.68 7.37 -1.36 3.74 0 0 Z " fill="#EDEDF6" transform="translate(274,342)"/>
<path d="M0 0 C0.66 0 1.32 0 2 0 C2.50615298 1.26839526 3.00469099 2.53983102 3.5 3.8125 C3.91765625 4.87404297 3.91765625 4.87404297 4.34375 5.95703125 C5 8 5 8 5 11 C2.36 11 -0.28 11 -3 11 C-2.44894091 7.0507432 -1.61064629 3.65079826 0 0 Z " fill="#F3F3F9" transform="translate(986,342)"/>
<path d="M0 0 C2.31 0.33 4.62 0.66 7 1 C7.625 3.375 7.625 3.375 8 6 C6 8 6 8 2.875 8.125 C1.451875 8.063125 1.451875 8.063125 0 8 C0 5.36 0 2.72 0 0 Z " fill="#EDEDF6" transform="translate(735,337)"/>
<path d="M0 0 C2.31 0.33 4.62 0.66 7 1 C7.625 3.375 7.625 3.375 8 6 C6 8 6 8 2.875 8.125 C1.451875 8.063125 1.451875 8.063125 0 8 C0 5.36 0 2.72 0 0 Z " fill="#EFEFF7" transform="translate(651,337)"/>
<path d="M0 0 C5.75 0.875 5.75 0.875 8 2 C7.125 6.875 7.125 6.875 6 8 C4.00041636 8.04080783 1.99954746 8.04254356 0 8 C0 5.36 0 2.72 0 0 Z " fill="#EFEFF7" transform="translate(875,337)"/>
<path d="M0 0 C5.75 0.75 5.75 0.75 8 3 C7.46428571 6.53571429 7.46428571 6.53571429 6 8 C4.00041636 8.04080783 1.99954746 8.04254356 0 8 C0 5.36 0 2.72 0 0 Z " fill="#ECECF6" transform="translate(320,337)"/>
</svg>
