<?xml version="1.0" encoding="UTF-8"?>
<svg version="1.1" xmlns="http://www.w3.org/2000/svg" width="406" height="89">
<path d="M0 0 C133.98 0 267.96 0 406 0 C406 29.37 406 58.74 406 89 C272.02 89 138.04 89 0 89 C0 59.63 0 30.26 0 0 Z " fill="#FDFDFD" transform="translate(0,0)"/>
<path d="M0 0 C12.26112574 0 23.59504733 2.19759166 32.82421875 10.67578125 C37.93748084 16.03306019 40.95530881 22.30837102 44 29 C44.53625 28.113125 45.0725 27.22625 45.625 26.3125 C47.91429294 22.86642653 50.76285433 20.5765037 54 18 C56.68720976 15.44387364 59.09748464 12.8800189 61.4375 10 C63.35543268 7.7546154 64.99874859 6.07679112 67.25 4.25 C70.02359938 2.29368116 70.02359938 2.29368116 71 0 C76.28 0 81.56 0 87 0 C89.07993083 10.5977428 89.07993083 10.5977428 87 16 C81.48930597 23.61284808 72.41283045 33.79358477 64 38 C64.33 38.99 64.66 39.98 65 41 C65.66 41.33 66.32 41.66 67 42 C67 42.66 67 43.32 67 44 C67.57975586 44.26538574 68.15951172 44.53077148 68.75683594 44.80419922 C75.81048677 48.5644062 85.2667632 56.56934381 87.74023438 64.31933594 C88.36316965 68.98738273 87.88152909 73.39645921 87 78 C84.43493576 78.16276553 81.88024578 78.28113984 79.3125 78.375 C78.59126953 78.42527344 77.87003906 78.47554688 77.12695312 78.52734375 C71.81941671 78.67275571 71.81941671 78.67275571 69.45043945 76.7277832 C68.1328125 75.13671875 68.1328125 75.13671875 66 72 C63.44387364 69.31279024 60.8800189 66.90251536 58 64.5625 C54.86498773 61.88467702 52.58579835 59.19822427 50 56 C49.278125 55.278125 48.55625 54.55625 47.8125 53.8125 C46 52 46 52 44 49 C43.56429687 49.85722656 43.12859375 50.71445312 42.6796875 51.59765625 C36.26197049 63.91911725 30.62781238 71.1114194 17.16015625 76.0390625 C10.96896723 77.89728753 6.84755766 78 0 78 C0 71.73 0 65.46 0 59 C1.485 58.7525 2.97 58.505 4.5 58.25 C11.07564876 56.90879119 16.17674107 55.29076122 20.4375 49.9375 C23.42345115 44.32391183 23.71869993 39.25440057 23 33 C21.21988859 27.59609037 18.12595239 24.73337333 13.1875 22.0625 C8.53563899 19.82383932 5.56688061 19.69586008 0 19 C0 12.73 0 6.46 0 0 Z " fill="#2AD5D9" transform="translate(6,6)"/>
<path d="M0 0 C23.57894737 0 23.57894737 0 31 6 C35.50184463 10.99811097 36.75498429 15.64496738 36.421875 22.31640625 C35.55712084 27.81720358 33.50333616 31.60666404 29.4375 35.375 C19.45074026 42.03283983 13.70844174 40 0 40 C0 26.8 0 13.6 0 0 Z " fill="#2F1852" transform="translate(109,25)"/>
<path d="M0 0 C3.63 -0.103125 7.26 -0.20625 11 -0.3125 C12.69189453 -0.38078003 12.69189453 -0.38078003 14.41796875 -0.45043945 C21.28013193 -0.54420138 25.75448218 0.46342485 31 5 C33.32057071 7.3159846 33.90702088 8.38834324 34.3984375 11.62109375 C34.31984436 21.06536965 34.31984436 21.06536965 31 25 C30.54625 25.556875 30.0925 26.11375 29.625 26.6875 C25.24727282 30.22335657 20.59084802 30.25943737 15.1875 30.125 C14.14819336 30.11146484 14.14819336 30.11146484 13.08789062 30.09765625 C11.39177605 30.07426157 9.69584129 30.03839641 8 30 C8 33.3 8 36.6 8 40 C5.36 40 2.72 40 0 40 C0 26.8 0 13.6 0 0 Z " fill="#301752" transform="translate(288,25)"/>
<path d="M0 0 C10.23 0 20.46 0 31 0 C31 2.64 31 5.28 31 8 C23.74 8 16.48 8 9 8 C9 10.64 9 13.28 9 16 C15.6 16 22.2 16 29 16 C29 18.64 29 21.28 29 24 C22.4 24 15.8 24 9 24 C9.33 26.31 9.66 28.62 10 31 C16.93 31.33 23.86 31.66 31 32 C31 34.64 31 37.28 31 40 C26.9590828 40.20406408 22.9194946 40.32788704 18.875 40.4375 C17.73289063 40.49615234 16.59078125 40.55480469 15.4140625 40.61523438 C5.88779578 40.80908283 5.88779578 40.80908283 2.21875 37.53125 C-1.88149719 31.49864089 -0.60942495 23.03848534 -0.375 16.0625 C-0.34486921 14.5046087 -0.31749887 12.94666142 -0.29296875 11.38867188 C-0.23231828 7.58993072 -0.11492844 3.79902351 0 0 Z " fill="#2F1851" transform="translate(153,25)"/>
<path d="M0 0 C10.23 0 20.46 0 31 0 C31 2.64 31 5.28 31 8 C23.41 8 15.82 8 8 8 C8 10.64 8 13.28 8 16 C14.93 16 21.86 16 29 16 C29 18.64 29 21.28 29 24 C22.4 24 15.8 24 9 24 C9.33 26.31 9.66 28.62 10 31 C16.93 31.33 23.86 31.66 31 32 C31 34.64 31 37.28 31 40 C26.93787788 40.14547545 22.87642713 40.23413226 18.8125 40.3125 C17.66201172 40.35439453 16.51152344 40.39628906 15.32617188 40.43945312 C6.98978522 40.56027032 6.98978522 40.56027032 4.11865234 38.93505859 C1.20680417 36.08188746 0.02665204 33.76448354 -0.11352539 29.74365234 C-0.11336691 28.35773731 -0.10770937 26.97181608 -0.09765625 25.5859375 C-0.0962413 24.85629791 -0.09482635 24.12665833 -0.09336853 23.37490845 C-0.08776531 21.04156415 -0.07521235 18.70831536 -0.0625 16.375 C-0.05748541 14.79427222 -0.05292243 13.21354293 -0.04882812 11.6328125 C-0.03864517 7.75514182 -0.01907055 3.87767798 0 0 Z " fill="#352056" transform="translate(367,25)"/>
<path d="M0 0 C2.64 0 5.28 0 8 0 C8.01401855 1.24088379 8.01401855 1.24088379 8.02832031 2.50683594 C8.08200319 6.25516415 8.1656571 10.00224162 8.25 13.75 C8.26417969 15.05195312 8.27835938 16.35390625 8.29296875 17.6953125 C8.32519531 18.94570313 8.35742188 20.19609375 8.390625 21.484375 C8.41157227 22.63647461 8.43251953 23.78857422 8.45410156 24.97558594 C9.10527196 28.58323303 10.14082348 29.77835161 13 32 C16.57031187 32.82284531 20.01659165 32.35301838 23.4375 31.125 C25.15893274 30.06925899 25.15893274 30.06925899 26 28 C26.15441209 25.89625004 26.24992639 23.78804881 26.31640625 21.6796875 C26.35830078 20.42285156 26.40019531 19.16601562 26.44335938 17.87109375 C26.48267578 16.55238281 26.52199219 15.23367187 26.5625 13.875 C26.60569512 12.53514249 26.64930973 11.19529844 26.69335938 9.85546875 C26.79970981 6.57042185 26.90173808 3.28529719 27 0 C29.97 0 32.94 0 36 0 C36.11690073 4.49977884 36.18748837 8.99916287 36.25 13.5 C36.30027344 15.40265625 36.30027344 15.40265625 36.3515625 17.34375 C36.42844517 24.72448667 36.15478348 29.80139125 32 36 C25.56338544 41.12301975 19.97703241 41.60744643 12 41 C7.50964165 39.55969638 4.28080043 37.06729369 1.26782227 33.48999023 C-1.56259255 27.93108387 -0.59369598 21.16054164 -0.375 15.0625 C-0.34486529 13.60096634 -0.31749563 12.1393729 -0.29296875 10.67773438 C-0.22724219 7.11723626 -0.12391851 3.55900308 0 0 Z " fill="#2B144E" transform="translate(241,25)"/>
<path d="M0 0 C2.64 0 5.28 0 8 0 C8.33 10.23 8.66 20.46 9 31 C15.6 31.33 22.2 31.66 29 32 C29 34.64 29 37.28 29 40 C25.27109745 40.1164862 21.54266486 40.18734576 17.8125 40.25 C16.22985352 40.30027344 16.22985352 40.30027344 14.61523438 40.3515625 C6.75709587 40.45071882 6.75709587 40.45071882 2.82421875 38.109375 C-0.44810195 34.32553522 -0.1313915 31.16075232 -0.09765625 26.3671875 C-0.0962413 25.61535187 -0.09482635 24.86351624 -0.09336853 24.08889771 C-0.08776465 21.6842249 -0.07521157 19.27964473 -0.0625 16.875 C-0.0574855 15.24609509 -0.0529225 13.61718873 -0.04882812 11.98828125 C-0.03779397 7.99215173 -0.02052679 3.99609158 0 0 Z " fill="#2C154E" transform="translate(331,25)"/>
<path d="M0 0 C3.63 -0.103125 7.26 -0.20625 11 -0.3125 C12.69189453 -0.38078003 12.69189453 -0.38078003 14.41796875 -0.45043945 C21.28013193 -0.54420138 25.75448218 0.46342485 31 5 C33.32057071 7.3159846 33.90702088 8.38834324 34.3984375 11.62109375 C34.34435558 18.11993753 33.796197 21.73777017 29.5 26.75 C25.83004233 29.80829806 21.30578743 29.11351549 16.8125 29.0625 C16.06291016 29.05798828 15.31332031 29.05347656 14.54101562 29.04882812 C12.69397617 29.03706354 10.84697787 29.01912865 9 29 C10.32 28.67 11.64 28.34 13 28 C13 27.01 13 26.02 13 25 C14.98 25.33 16.96 25.66 19 26 C19 25.34 19 24.68 19 24 C15.37 24 11.74 24 8 24 C8 23.67 8 23.34 8 23 C9.33804687 22.85304688 9.33804687 22.85304688 10.703125 22.703125 C11.87359375 22.55359375 13.0440625 22.4040625 14.25 22.25 C15.41015625 22.11078125 16.5703125 21.9715625 17.765625 21.828125 C21.38394 20.90169652 22.73068406 19.9161258 25 17 C25.83333333 14.5 25.83333333 14.5 25 12 C20.25354931 7.50336251 15.35032391 7.25100094 9 7 C9 6.67 9 6.34 9 6 C9.95712891 5.92652344 9.95712891 5.92652344 10.93359375 5.8515625 C11.75988281 5.77679687 12.58617187 5.70203125 13.4375 5.625 C14.26121094 5.55539063 15.08492188 5.48578125 15.93359375 5.4140625 C16.61550781 5.27742188 17.29742187 5.14078125 18 5 C18.33 4.34 18.66 3.68 19 3 C13.39 2.67 7.78 2.34 2 2 C2 13.88 2 25.76 2 38 C3.65 38 5.3 38 7 38 C7 35.03 7 32.06 7 29 C7.33 29 7.66 29 8 29 C8 32.63 8 36.26 8 40 C5.36 40 2.72 40 0 40 C0 26.8 0 13.6 0 0 Z " fill="#2D174F" transform="translate(288,25)"/>
<path d="M0 0 C1.4540625 0.0309375 1.4540625 0.0309375 2.9375 0.0625 C3.71337815 5.97857087 3.71337815 5.97857087 1.71875 8.76513672 C0.0237188 10.44030427 -1.72743818 11.97968371 -3.5625 13.5 C-4.49255859 14.31114258 -4.49255859 14.31114258 -5.44140625 15.13867188 C-6.96652913 16.46435561 -8.51256152 17.76591685 -10.0625 19.0625 C-8.27246608 23.88879398 -4.10423896 26.6822927 -0.23046875 29.8203125 C2.68382308 32.33238972 3.8776028 33.5157787 4.3046875 37.4140625 C4.18351562 38.28804687 4.06234375 39.16203125 3.9375 40.0625 C0.61046249 40.48959082 -1.98999642 40.72883337 -4.92041016 38.90820312 C-6.82723873 37.28358313 -8.60657696 35.5866215 -10.375 33.8125 C-10.99439453 33.22597656 -11.61378906 32.63945313 -12.25195312 32.03515625 C-16.20568602 28.21450231 -18.66393873 25.36529842 -19.625 19.8125 C-18.38667725 11.55701497 -10.15175762 6.18638751 -4.0625 1.0625 C-3.0625 0.0625 -3.0625 0.0625 0 0 Z " fill="#2A134B" transform="translate(228.0625,24.9375)"/>
<path d="M0 0 C12.86206897 0 12.86206897 0 18.875 5.8125 C20.5542101 9.07763075 20.43721578 11.37735495 20 15 C17.74559823 19.34181081 15.60899048 22.23485471 11 24 C7.37 24 3.74 24 0 24 C0 16.08 0 8.16 0 0 Z " fill="#FBFAFB" transform="translate(117,33)"/>
<path d="M0 0 C0.99 0.495 0.99 0.495 2 1 C1.67 12.88 1.34 24.76 1 37 C6.94 37 12.88 37 19 37 C18.67 36.01 18.34 35.02 18 34 C14.7 33.67 11.4 33.34 8 33 C8 32.67 8 32.34 8 32 C9.08667969 31.85304688 9.08667969 31.85304688 10.1953125 31.703125 C16.11039277 30.78825925 20.44199542 29.97364502 25 26 C26.87687245 22.98931723 27.22854068 20.77038298 27.125 17.25 C27.09792969 16.05117188 27.09792969 16.05117188 27.0703125 14.828125 C27.04710937 14.22484375 27.02390625 13.6215625 27 13 C27.99 13 28.98 13 30 13 C30.66 12.01 31.32 11.02 32 10 C30.68 8.68 29.36 7.36 28 6 C27.67 6.66 27.34 7.32 27 8 C25.68 6.68 24.36 5.36 23 4 C23.33 3.34 23.66 2.68 24 2 C23.34 1.67 22.68 1.34 22 1 C26.77737769 1.42153333 29.77987081 3.60405916 33 7 C36.74149448 12.23809227 36.79250022 17.79208162 36 24 C33.87026144 30.88157461 29.87019037 34.08653975 24 38 C16.14854796 39.57029041 8.00694143 39 0 39 C0 26.13 0 13.26 0 0 Z " fill="#261249" transform="translate(109,26)"/>
<path d="M0 0 C2.64 0 5.28 0 8 0 C8 13.2 8 26.4 8 40 C5.36 40 2.72 40 0 40 C0 26.8 0 13.6 0 0 Z " fill="#2A124E" transform="translate(195,25)"/>
<path d="M0 0 C2.97 0 5.94 0 9 0 C9.08735463 4.54154478 9.14051247 9.08287232 9.1875 13.625 C9.22520508 15.55279297 9.22520508 15.55279297 9.26367188 17.51953125 C9.27333984 18.76347656 9.28300781 20.00742187 9.29296875 21.2890625 C9.31653442 23.00150146 9.31653442 23.00150146 9.34057617 24.74853516 C8.95723398 28.4082852 7.8205057 30.82933839 6 34 C5.67 33.34 5.34 32.68 5 32 C3.68 32.66 2.36 33.32 1 34 C-0.15792475 30.3298994 -0.11388663 26.87724396 -0.09765625 23.046875 C-0.0962413 22.38665344 -0.09482635 21.72643188 -0.09336853 21.04620361 C-0.08779245 18.94742206 -0.07524447 16.84874905 -0.0625 14.75 C-0.0574819 13.32291821 -0.05291954 11.89583475 -0.04882812 10.46875 C-0.03783088 6.97913168 -0.0205828 3.48957644 0 0 Z " fill="#342355" transform="translate(268,25)"/>
<path d="M0 0 C12.1969112 -0.49280449 12.1969112 -0.49280449 15.921875 1.79296875 C18 4 18 4 18.0625 7.5625 C16.87924153 11.39068918 16.41590703 12.11926843 13 14 C9.765625 14.29296875 9.765625 14.29296875 6.25 14.1875 C4.1875 14.125625 2.125 14.06375 0 14 C0 9.38 0 4.76 0 0 Z " fill="#F7F5F7" transform="translate(296,33)"/>
<path d="M0 0 C10.23 0 20.46 0 31 0 C31 2.64 31 5.28 31 8 C23.74 8 16.48 8 9 8 C9 10.64 9 13.28 9 16 C8.67 16 8.34 16 8 16 C7.67 13.36 7.34 10.72 7 8 C6.34 8 5.68 8 5 8 C4.67 6.68 4.34 5.36 4 4 C12.58 4.66 21.16 5.32 30 6 C30 4.68 30 3.36 30 2 C20.76 2 11.52 2 2 2 C1.67 12.23 1.34 22.46 1 33 C0.67 33 0.34 33 0 33 C0 22.11 0 11.22 0 0 Z " fill="#433163" transform="translate(153,25)"/>
<path d="M0 0 C7.26 0 14.52 0 22 0 C22 2.31 22 4.62 22 7 C15.07 7 8.14 7 1 7 C1 8.98 1 10.96 1 13 C0.67 13 0.34 13 0 13 C0 10.69 0 8.38 0 6 C0.66 6 1.32 6 2 6 C2 4.35 2 2.7 2 1 C1.34 0.67 0.68 0.34 0 0 Z " fill="#250F48" transform="translate(160,41)"/>
<path d="M0 0 C0.33 0 0.66 0 1 0 C1 2.31 1 4.62 1 7 C7.6 7 14.2 7 21 7 C21 9.31 21 11.62 21 14 C14.4 14 7.8 14 1 14 C1 16.97 1 19.94 1 23 C0.67 23 0.34 23 0 23 C0 19.7 0 16.4 0 13 C3.465 12.505 3.465 12.505 7 12 C3.535 10.02 3.535 10.02 0 8 C0 5.36 0 2.72 0 0 Z " fill="#220C45" transform="translate(374,34)"/>
<path d="M0 0 C2.475 0.495 2.475 0.495 5 1 C5 1.99 5 2.98 5 4 C5.66 4 6.32 4 7 4 C7.33 3.01 7.66 2.02 8 1 C9.5 2.375 9.5 2.375 11 4 C11 4.66 11 5.32 11 6 C11.598125 5.773125 12.19625 5.54625 12.8125 5.3125 C15 5 15 5 16.75 6.0625 C18.48497427 8.75171012 18.20873629 10.86895563 18 14 C13.68326538 14.40957782 11.58068311 14.38467503 7.91015625 11.953125 C6.50056641 10.61507812 6.50056641 10.61507812 5.0625 9.25 C4.10472656 8.36828125 3.14695313 7.4865625 2.16015625 6.578125 C0 4 0 4 0 0 Z " fill="#301954" transform="translate(214,51)"/>
<path d="M0 0 C1.00023193 0.00523682 2.00046387 0.01047363 3.03100586 0.01586914 C4.1105957 0.0190918 5.19018555 0.02231445 6.30249023 0.02563477 C8.00695312 0.03820312 8.00695312 0.03820312 9.74584961 0.05102539 C11.45611328 0.05779297 11.45611328 0.05779297 13.20092773 0.06469727 C16.02845312 0.07652792 18.85587601 0.09301129 21.68334961 0.11352539 C21.68334961 1.76352539 21.68334961 3.41352539 21.68334961 5.11352539 C18.07945297 5.22953543 14.47603494 5.30070947 10.87084961 5.36352539 C9.84668945 5.39704102 8.8225293 5.43055664 7.76733398 5.46508789 C6.78442383 5.47797852 5.80151367 5.49086914 4.78881836 5.50415039 C3.4298645 5.53557129 3.4298645 5.53557129 2.04345703 5.56762695 C-0.31665039 5.11352539 -0.31665039 5.11352539 -2.13574219 3.08911133 C-2.52544189 2.43716797 -2.9151416 1.78522461 -3.31665039 1.11352539 C-2.31665039 0.11352539 -2.31665039 0.11352539 0 0 Z " fill="#28104E" transform="translate(376.316650390625,26.886474609375)"/>
<path d="M0 0 C0.33 0 0.66 0 1 0 C1.33 7.59 1.66 15.18 2 23 C3.65 22.67 5.3 22.34 7 22 C7.24954005 23.43410368 7.47392642 24.87260072 7.6875 26.3125 C7.81511719 27.11300781 7.94273437 27.91351563 8.07421875 28.73828125 C8 31 8 31 6.51953125 32.79296875 C6.01808594 33.19128906 5.51664062 33.58960938 5 34 C5 33.34 5 32.68 5 32 C3.68 32.66 2.36 33.32 1 34 C-0.15792475 30.3298994 -0.11388663 26.87724396 -0.09765625 23.046875 C-0.0962413 22.38665344 -0.09482635 21.72643188 -0.09336853 21.04620361 C-0.08779245 18.94742206 -0.07524447 16.84874905 -0.0625 14.75 C-0.0574819 13.32291821 -0.05291954 11.89583475 -0.04882812 10.46875 C-0.03783088 6.97913168 -0.0205828 3.48957644 0 0 Z " fill="#422F5F" transform="translate(268,25)"/>
<path d="M0 0 C2 2 2 2 3 5 C3.99 4.67 4.98 4.34 6 4 C6.33 4.99 6.66 5.98 7 7 C1.85007673 11.41421994 -1.98637188 13.28948502 -8.8125 13.125 C-10.27623047 13.09792969 -10.27623047 13.09792969 -11.76953125 13.0703125 C-12.50558594 13.04710938 -13.24164063 13.02390625 -14 13 C-14.33 12.34 -14.66 11.68 -15 11 C-10.71 11 -6.42 11 -2 11 C-1.67 9.68 -1.34 8.36 -1 7 C-2.32 6.01 -3.64 5.02 -5 4 C-4.360625 3.71125 -3.72125 3.4225 -3.0625 3.125 C-0.84793921 2.17176549 -0.84793921 2.17176549 0 0 Z " fill="#342156" transform="translate(267,53)"/>
<path d="M0 0 C0.66 0 1.32 0 2 0 C2 6.6 2 13.2 2 20 C0.35 20.33 -1.3 20.66 -3 21 C-2.89037184 17.8742604 -2.75968759 14.74975219 -2.625 11.625 C-2.5940625 10.73554687 -2.563125 9.84609375 -2.53125 8.9296875 C-2.49257813 8.07890625 -2.45390625 7.228125 -2.4140625 6.3515625 C-2.3826416 5.56604004 -2.3512207 4.78051758 -2.31884766 3.97119141 C-2 2 -2 2 0 0 Z " fill="#2D1451" transform="translate(273,27)"/>
<path d="M0 0 C0.66 0 1.32 0 2 0 C2.33 0.99 2.66 1.98 3 3 C4.31018441 3.71108299 5.64777819 4.37253017 7 5 C8.28016835 6.00435972 9.53128122 7.04690261 10.75 8.125 C11.67039063 8.93324219 11.67039063 8.93324219 12.609375 9.7578125 C13.06828125 10.16773438 13.5271875 10.57765625 14 11 C13.67 11.99 13.34 12.98 13 14 C11.35 12.35 9.7 10.7 8 9 C7.67 9.66 7.34 10.32 7 11 C6.34 11 5.68 11 5 11 C4.67 10.01 4.34 9.02 4 8 C3.01 8 2.02 8 1 8 C0.34 8.66 -0.32 9.32 -1 10 C-2.42944945 7.64561267 -3.08661261 6.51967567 -2.625 3.75 C-2.41875 3.1725 -2.2125 2.595 -2 2 C-1.34 2 -0.68 2 0 2 C0 1.34 0 0.68 0 0 Z " fill="#2A134C" transform="translate(214,44)"/>
<path d="M0 0 C3.96 0 7.92 0 12 0 C11.67 1.65 11.34 3.3 11 5 C6.71 5 2.42 5 -2 5 C-1.34 3.35 -0.68 1.7 0 0 Z " fill="#210D46" transform="translate(165,16)"/>
<path d="M0 0 C0.66 1.32 1.32 2.64 2 4 C1.01 4.495 1.01 4.495 0 5 C-0.99 4.67 -1.98 4.34 -3 4 C-2.79375 4.9075 -2.5875 5.815 -2.375 6.75 C-1.98207119 10.15538306 -2.12342435 11.23452009 -4 14 C-4.66 14.66 -5.32 15.32 -6 16 C-6 12.7 -6 9.4 -6 6 C-7.65 6.33 -9.3 6.66 -11 7 C-6.58282209 1.23312883 -6.58282209 1.23312883 -3.8125 0.125 C-2.54399687 0.03751703 -1.27151621 0 0 0 Z " fill="#2F1A51" transform="translate(222,32)"/>
<path d="M0 0 C-0.66 1.98 -1.32 3.96 -2 6 C-0.68 6.33 0.64 6.66 2 7 C-2.95 7 -7.9 7 -13 7 C-11.68 6.67 -10.36 6.34 -9 6 C-9 5.01 -9 4.02 -9 3 C-6.03 3.495 -6.03 3.495 -3 4 C-3 3.34 -3 2.68 -3 2 C-6.63 2 -10.26 2 -14 2 C-14 1.67 -14 1.34 -14 1 C-12.41693353 0.83081732 -10.83353281 0.66476064 -9.25 0.5 C-8.36828125 0.4071875 -7.4865625 0.314375 -6.578125 0.21875 C-4 0 -4 0 0 0 Z " fill="#220A46" transform="translate(310,47)"/>
<path d="M0 0 C3.96 0 7.92 0 12 0 C12 0.66 12 1.32 12 2 C9.03 1.505 9.03 1.505 6 1 C6 1.99 6 2.98 6 4 C9.3 4.33 12.6 4.66 16 5 C16 5.33 16 5.66 16 6 C10.39 6 4.78 6 -1 6 C-0.67 4.02 -0.34 2.04 0 0 Z " fill="#371E57" transform="translate(295,49)"/>
<path d="M0 0 C0.66 0.33 1.32 0.66 2 1 C0.47793991 3.62901288 -0.84365964 5.84365964 -3 8 C-2.67958603 10.60280568 -2.67958603 10.60280568 -2 13 C-5 13 -5 13 -6.6875 11.5 C-7.120625 11.005 -7.55375 10.51 -8 10 C-6.34908222 5.70761377 -3.26245434 3.1206085 0 0 Z " fill="#F3F0F5" transform="translate(225,36)"/>
<path d="M0 0 C0.61875 0.495 1.2375 0.99 1.875 1.5 C3.83880904 3.19222773 3.83880904 3.19222773 6 3 C6.66 2.01 7.32 1.02 8 0 C8.05399736 1.45792884 8.09279177 2.91642712 8.125 4.375 C8.14820313 5.18710937 8.17140625 5.99921875 8.1953125 6.8359375 C8 9 8 9 6 11 C5.34 10.67 4.68 10.34 4 10 C4 8.35 4 6.7 4 5 C3.34 5 2.68 5 2 5 C2 5.66 2 6.32 2 7 C1.34 7 0.68 7 0 7 C0 4.69 0 2.38 0 0 Z " fill="#230D46" transform="translate(314,36)"/>
<path d="M0 0 C2.19459255 0.98378287 3.79664694 1.77896406 5.4375 3.5625 C7.49199044 5.45263121 9.27994277 5.6324247 12 6 C12 4.68 12 3.36 12 2 C12.66 2 13.32 2 14 2 C14 3.98 14 5.96 14 8 C10.9375 8.4375 10.9375 8.4375 7 8 C4.30444299 5.97052658 2.08817778 3.64671774 0 1 C0 0.67 0 0.34 0 0 Z " fill="#332350" transform="translate(218,57)"/>
<path d="M0 0 C2.9297008 2.82506863 5.50174717 5.78796065 8 9 C6.35 9.33 4.7 9.66 3 10 C2.67 9.01 2.34 8.02 2 7 C0.68 7 -0.64 7 -2 7 C-1.34 4.69 -0.68 2.38 0 0 Z " fill="#E1F8F5" transform="translate(49,54)"/>
<path d="M0 0 C0.33 0.66 0.66 1.32 1 2 C0.67 2.99 0.34 3.98 0 5 C0.66 5 1.32 5 2 5 C2 5.66 2 6.32 2 7 C0.02 7 -1.96 7 -4 7 C-4.66 5.68 -5.32 4.36 -6 3 C-4.02 2.01 -2.04 1.02 0 0 Z " fill="#EAF8F8" transform="translate(75,41)"/>
<path d="M0 0 C0.99 0.33 1.98 0.66 3 1 C3.3125 3.3125 3.3125 3.3125 3 6 C0.6875 7.875 0.6875 7.875 -2 9 C-2.99 8.67 -3.98 8.34 -5 8 C-3.35 5.36 -1.7 2.72 0 0 Z " fill="#E5F9F8" transform="translate(46,61)"/>
<path d="M0 0 C0.99 0.33 1.98 0.66 3 1 C2.278125 1.556875 1.55625 2.11375 0.8125 2.6875 C-1.97865112 4.98244648 -4.47974967 7.4134273 -7 10 C-8 11 -9 12 -10 13 C-10.66 12.67 -11.32 12.34 -12 12 C-8.34538072 7.50300394 -4.74119446 3.37151606 0 0 Z " fill="#22D3D1" transform="translate(68,16)"/>
<path d="M0 0 C0.99 0.99 1.98 1.98 3 3 C3.33 2.34 3.66 1.68 4 1 C4.66 1.33 5.32 1.66 6 2 C6 4.31 6 6.62 6 9 C5.01 9 4.02 9 3 9 C2.67 8.01 2.34 7.02 2 6 C1.01 5.34 0.02 4.68 -1 4 C-0.67 2.68 -0.34 1.36 0 0 Z " fill="#321C56" transform="translate(136,48)"/>
<path d="M0 0 C0.66 0 1.32 0 2 0 C2 1.65 2 3.3 2 5 C2.99 5.33 3.98 5.66 5 6 C4.34 6.66 3.68 7.32 3 8 C1 8 1 8 -1 7 C-2.25 3.9375 -2.25 3.9375 -3 1 C-2.01 1.33 -1.02 1.66 0 2 C0 1.34 0 0.68 0 0 Z " fill="#331A56" transform="translate(316,41)"/>
<path d="M0 0 C0.99 0 1.98 0 3 0 C3 3.96 3 7.92 3 12 C2.34 12 1.68 12 1 12 C0.67 12.66 0.34 13.32 0 14 C0 9.38 0 4.76 0 0 Z " fill="#240B4B" transform="translate(293,34)"/>
<path d="M0 0 C1.32 0.33 2.64 0.66 4 1 C3.34 1 2.68 1 2 1 C2 1.66 2 2.32 2 3 C2.66 3.33 3.32 3.66 4 4 C0.53777385 5.06723961 -2.64039266 5.10173486 -6.25 5.0625 C-7.32765625 5.05347656 -8.4053125 5.04445313 -9.515625 5.03515625 C-10.33546875 5.02355469 -11.1553125 5.01195313 -12 5 C-12 4.67 -12 4.34 -12 4 C-10.95199219 3.94392578 -10.95199219 3.94392578 -9.8828125 3.88671875 C-8.97273437 3.82097656 -8.06265625 3.75523438 -7.125 3.6875 C-6.22007813 3.62949219 -5.31515625 3.57148437 -4.3828125 3.51171875 C-1.63778399 3.2117961 -1.63778399 3.2117961 0 0 Z " fill="#22D4D1" transform="translate(19,78)"/>
<path d="M0 0 C0.33 0.99 0.66 1.98 1 3 C-4.03733166 4.5111995 -8.88171027 3.64599773 -14 3 C-14 2.67 -14 2.34 -14 2 C-12.22978678 1.663389 -10.45880326 1.33082707 -8.6875 1 C-7.70136719 0.814375 -6.71523437 0.62875 -5.69921875 0.4375 C-3 0 -3 0 0 0 Z " fill="#220C45" transform="translate(131,56)"/>
<path d="M0 0 C2.99220268 1.36370299 5.29026529 2.94908083 7.75 5.125 C8.67039063 5.93324219 8.67039063 5.93324219 9.609375 6.7578125 C10.06828125 7.16773438 10.5271875 7.57765625 11 8 C10.67 8.99 10.34 9.98 10 11 C9.278125 10.2575 8.55625 9.515 7.8125 8.75 C5.09288953 5.98732731 5.09288953 5.98732731 2.1875 3.8125 C1.465625 3.214375 0.74375 2.61625 0 2 C0 1.34 0 0.68 0 0 Z " fill="#231342" transform="translate(217,47)"/>
<path d="M0 0 C1.17539996 0.92652701 2.34010577 1.86663387 3.5 2.8125 C4.1496875 3.33457031 4.799375 3.85664062 5.46875 4.39453125 C7 6 7 6 7 9 C3.73539027 7.19587357 2.11070205 6.16605307 0 3 C0 2.01 0 1.02 0 0 Z " fill="#38D7DB" transform="translate(76,52)"/>
<path d="M0 0 C2 6 2 6 1.1875 8.0625 C0 10 0 10 -2 12 C-2.05395478 10.37536158 -2.09277195 8.75021459 -2.125 7.125 C-2.14820313 6.22007813 -2.17140625 5.31515625 -2.1953125 4.3828125 C-2 2 -2 2 0 0 Z " fill="#362356" transform="translate(218,36)"/>
<path d="M0 0 C1.32 0.33 2.64 0.66 4 1 C2 4 2 4 -1 5 C-2.39439664 5.06665376 -3.79169875 5.08538199 -5.1875 5.0625 C-7.0746875 5.0315625 -7.0746875 5.0315625 -9 5 C-9 4.67 -9 4.34 -9 4 C-7.88625 3.896875 -6.7725 3.79375 -5.625 3.6875 C-4.42875 3.460625 -3.2325 3.23375 -2 3 C-1.34 2.01 -0.68 1.02 0 0 Z " fill="#E1DBE6" transform="translate(263,53)"/>
<path d="M0 0 C1.98 1.65 3.96 3.3 6 5 C5.01 5.99 4.02 6.98 3 8 C3 7.34 3 6.68 3 6 C2.01 5.67 1.02 5.34 0 5 C0 3.35 0 1.7 0 0 Z " fill="#E2F8F6" transform="translate(71,77)"/>
<path d="M0 0 C1.32 0.66 2.64 1.32 4 2 C1.42215154 4.64752004 -0.91648098 6.94432065 -4 9 C-4 6 -4 6 -2.5625 4.5 C-2.046875 4.005 -1.53125 3.51 -1 3 C-0.67 2.01 -0.34 1.02 0 0 Z " fill="#DEF6F7" transform="translate(61,18)"/>
<path d="M0 0 C0.66 1.32 1.32 2.64 2 4 C0.71937515 5.7074998 -0.61767557 7.37373596 -2 9 C-2.66 9 -3.32 9 -4 9 C-3.67 8.01 -3.34 7.02 -3 6 C-2.34 6 -1.68 6 -1 6 C-1.33 4.68 -1.66 3.36 -2 2 C-1.34 2 -0.68 2 0 2 C0 1.34 0 0.68 0 0 Z " fill="#322252" transform="translate(229,27)"/>
<path d="M0 0 C1.98 0 3.96 0 6 0 C4.71937515 1.7074998 3.38232443 3.37373596 2 5 C1.34 5 0.68 5 0 5 C-0.33 4.01 -0.66 3.02 -1 2 C-0.67 1.34 -0.34 0.68 0 0 Z " fill="#230E44" transform="translate(219,36)"/>
<path d="M0 0 C0.99 0.33 1.98 0.66 3 1 C2.67 2.32 2.34 3.64 2 5 C1.34 5 0.68 5 0 5 C0 4.34 0 3.68 0 3 C-1.98 3.99 -1.98 3.99 -4 5 C-3 2 -3 2 0 0 Z " fill="#261049" transform="translate(214,37)"/>
<path d="M0 0 C0.99 0 1.98 0 3 0 C2.67 3.63 2.34 7.26 2 11 C1.67 11 1.34 11 1 11 C0.67 7.37 0.34 3.74 0 0 Z " fill="#DDD7E1" transform="translate(321,32)"/>
<path d="M0 0 C0.66 0.33 1.32 0.66 2 1 C2 2.65 2 4.3 2 6 C0.68 6.33 -0.64 6.66 -2 7 C-1.34 4.69 -0.68 2.38 0 0 Z " fill="#ECFAFA" transform="translate(49,54)"/>
<path d="M0 0 C2.97 0.495 2.97 0.495 6 1 C5.34 2.32 4.68 3.64 4 5 C3.34 5 2.68 5 2 5 C1.34 3.35 0.68 1.7 0 0 Z " fill="#2F1851" transform="translate(247,55)"/>
</svg>
